<svg width="16" height="16" viewBox="0 0 16 16" fill="none" xmlns="http://www.w3.org/2000/svg">
<path d="M3.60605 4.42798C5.14605 4.35531 6.68538 4.27998 8.22605 4.22531C8.94138 4.19998 9.65671 4.17798 10.372 4.16865C11.0554 4.15998 11.7954 4.07065 12.4374 4.35931C14.6394 5.35065 13.7107 9.33398 12.1887 10.5166C11.128 11.3406 9.43205 11.402 8.14471 11.3686C6.95005 11.3386 5.50871 11.202 4.50338 10.486C2.77071 9.25198 3.67605 5.88931 3.61938 3.58998C3.65338 2.30331 2.25671 2.09465 2.25671 2.09465" stroke="#191D2D" stroke-linecap="round" stroke-linejoin="round"/>
<path d="M8.59006 6.76131H10.4387" stroke="#191D2D" stroke-linecap="round" stroke-linejoin="round"/>
<path fill-rule="evenodd" clip-rule="evenodd" d="M4.76604 13.1793C4.96604 13.1793 5.12871 13.3419 5.12871 13.5419C5.12871 13.7426 4.96604 13.9053 4.76604 13.9053C4.56538 13.9053 4.40271 13.7426 4.40271 13.5419C4.40271 13.3419 4.56538 13.1793 4.76604 13.1793Z" fill="#191D2D"/>
<path fill-rule="evenodd" clip-rule="evenodd" d="M4.76604 13.1793C4.96604 13.1793 5.12871 13.3419 5.12871 13.5419C5.12871 13.7426 4.96604 13.9053 4.76604 13.9053C4.56538 13.9053 4.40271 13.7426 4.40271 13.5419C4.40271 13.3419 4.56538 13.1793 4.76604 13.1793Z" stroke="#191D2D" stroke-linecap="round" stroke-linejoin="round"/>
<path fill-rule="evenodd" clip-rule="evenodd" d="M11.6533 13.1793C11.854 13.1793 12.0166 13.3419 12.0166 13.5419C12.0166 13.7426 11.854 13.9053 11.6533 13.9053C11.4533 13.9053 11.2906 13.7426 11.2906 13.5419C11.2906 13.3419 11.4533 13.1793 11.6533 13.1793Z" fill="#191D2D"/>
<path fill-rule="evenodd" clip-rule="evenodd" d="M11.6533 13.1793C11.854 13.1793 12.0166 13.3419 12.0166 13.5419C12.0166 13.7426 11.854 13.9053 11.6533 13.9053C11.4533 13.9053 11.2906 13.7426 11.2906 13.5419C11.2906 13.3419 11.4533 13.1793 11.6533 13.1793Z" stroke="#191D2D" stroke-linecap="round" stroke-linejoin="round"/>
</svg>
