<svg width="48" height="48" viewBox="0 0 48 48" fill="none" xmlns="http://www.w3.org/2000/svg">
<rect x="0.5" y="0.5" width="47" height="47" rx="23.5" stroke="#F195AE"/>
<rect x="4" y="4" width="40" height="40" rx="20" fill="#F195AE"/>
<path d="M30.9677 35.5391L29.7069 31.5129C29.6996 31.4877 29.6984 31.4609 29.7035 31.4352L29.9969 29.9563C30.0043 29.9186 30.0112 29.8808 30.0181 29.843L30.0299 29.7787C30.0657 29.5882 29.9402 29.4048 29.7498 29.369C29.5592 29.3334 29.3759 29.4587 29.3401 29.6492L29.3275 29.7177C29.3214 29.7518 29.3152 29.7858 29.3085 29.8198L29.0151 31.2987C28.9882 31.4342 28.9944 31.576 29.033 31.7087L30.2938 35.7349C30.3384 35.8883 30.4785 35.988 30.6306 35.988C30.6631 35.988 30.696 35.9835 30.7287 35.974C30.9147 35.9199 31.0218 35.7252 30.9677 35.5391Z" fill="#191D2D"/>
<path d="M29.6356 23.5435V26.4887C29.6356 27.0509 29.6072 27.6211 29.5512 28.1837C29.532 28.3766 29.6728 28.5485 29.8657 28.5676C30.0586 28.5871 30.2305 28.446 30.2496 28.2532C30.3079 27.6676 30.3374 27.074 30.3374 26.4888V23.5435C30.3374 22.8361 29.7619 22.2606 29.0544 22.2606C28.3907 22.2606 27.829 22.7788 27.7756 23.4404L27.5858 25.7936C26.2306 26.8343 25.2746 28.3219 24.8916 29.9882L24.6386 31.0893C24.5952 31.2782 24.7131 31.4665 24.902 31.5099C24.9284 31.5159 24.9549 31.5188 24.9809 31.5188C25.1408 31.5188 25.2853 31.4089 25.3226 31.2464L25.5757 30.1453C25.9258 28.6221 26.8051 27.2639 28.0516 26.321L28.1347 26.2581C28.2145 26.1978 28.2647 26.1062 28.2727 26.0065L28.4751 23.4968C28.4993 23.1971 28.7538 22.9623 29.0544 22.9623C29.3749 22.9624 29.6356 23.2231 29.6356 23.5435Z" fill="#191D2D"/>
<path d="M24.5727 33.9282C24.5368 33.7829 24.4389 33.6623 24.3042 33.5973L24.1388 33.5174C23.2011 33.0647 22.481 32.2793 22.1114 31.3059L21.9791 30.9576H23.8239C24.0177 30.9576 24.1748 30.8005 24.1748 30.6067C24.1748 30.4129 24.0177 30.2558 23.8239 30.2558H18.95C18.2718 30.2558 17.7201 29.7041 17.7201 29.0259V17.7934C17.7201 17.5996 17.563 17.4425 17.3692 17.4425C17.1754 17.4425 17.0182 17.5996 17.0182 17.7934V29.0259C17.0182 30.0911 17.8848 30.9576 18.95 30.9576H21.2284L21.4553 31.555C21.8889 32.697 22.7336 33.6184 23.8336 34.1495L23.914 34.1882L24.2955 35.7331C24.335 35.893 24.4783 36 24.6359 36C24.6638 36 24.6921 35.9966 24.7203 35.9896C24.9085 35.9432 25.0233 35.753 24.9769 35.5648L24.5727 33.9282Z" fill="#191D2D"/>
<path d="M17.3692 16.6489C17.563 16.6489 17.7201 16.4918 17.7201 16.298V13.9317C17.7201 13.2535 18.2718 12.7018 18.95 12.7018H19.9838V12.9522C19.9838 13.724 20.6117 14.3519 21.3835 14.3519H24.0886C24.8604 14.3519 25.4883 13.724 25.4883 12.9522V12.7018H26.5221C27.2003 12.7018 27.752 13.2535 27.752 13.9317V21.4788C27.752 21.6726 27.9092 21.8297 28.103 21.8297C28.2968 21.8297 28.4539 21.6726 28.4539 21.4788V13.9317C28.4538 12.8666 27.5872 12 26.5221 12H18.95C17.8848 12 17.0182 12.8666 17.0182 13.9317V16.298C17.0182 16.4918 17.1754 16.6489 17.3692 16.6489ZM24.7864 12.9522C24.7864 13.337 24.4734 13.65 24.0886 13.65H21.3834C20.9987 13.65 20.6856 13.337 20.6856 12.9522V12.7018H24.7864V12.9522H24.7864Z" fill="#191D2D"/>
<path d="M24.4931 25.8717C24.2993 25.8717 24.1422 26.0288 24.1422 26.2226C24.1422 26.4164 24.2993 26.5736 24.4931 26.5736H25.4259C25.792 26.5736 26.0898 26.2757 26.0898 25.9097V24.5372C26.0898 24.1712 25.792 23.8734 25.4259 23.8734H20.0462C19.6801 23.8734 19.3823 24.1712 19.3823 24.5372V25.9097C19.3823 26.2757 19.6801 26.5736 20.0462 26.5736H22.9977C23.1915 26.5736 23.3486 26.4164 23.3486 26.2226C23.3486 26.0288 23.1915 25.8717 22.9977 25.8717H20.0841V24.5752H25.388V25.8717H24.4931Z" fill="#191D2D"/>
<path d="M26.196 16.6719C26.0611 16.5327 25.839 16.5291 25.6998 16.664L24.3206 18.0001C24.2016 17.9311 24.0639 17.8909 23.9167 17.8909H21.5553C21.1095 17.8909 20.7469 18.2536 20.7469 18.6993V20.9145C20.7469 21.3602 21.1095 21.7228 21.5553 21.7228H23.9167C24.3624 21.7228 24.7251 21.3602 24.7251 20.9145V18.6993C24.7251 18.6632 24.7219 18.6278 24.7173 18.5929L26.1881 17.1681C26.3273 17.0332 26.3309 16.8111 26.196 16.6719ZM24.0233 20.9144C24.0233 20.9731 23.9755 21.0209 23.9167 21.0209H21.5553C21.4966 21.0209 21.4488 20.9731 21.4488 20.9144V18.6992C21.4488 18.6405 21.4966 18.5927 21.5553 18.5927H23.7089L22.6244 19.6431L22.4099 19.4563C22.2638 19.329 22.0421 19.3443 21.9148 19.4904C21.7875 19.6366 21.8028 19.8582 21.949 19.9855L22.4066 20.3841C22.4729 20.4418 22.555 20.4704 22.637 20.4704C22.7253 20.4704 22.8134 20.4373 22.8812 20.3715L24.0233 19.2651V20.9144Z" fill="#191D2D"/>
</svg>
