<svg width="24" height="24" viewBox="0 0 24 24" fill="none" xmlns="http://www.w3.org/2000/svg">
<path d="M18.9677 23.5391L17.7069 19.5129C17.6996 19.4877 17.6984 19.4609 17.7035 19.4352L17.9969 17.9563C18.0043 17.9186 18.0112 17.8808 18.0181 17.843L18.0299 17.7787C18.0657 17.5882 17.9402 17.4048 17.7498 17.369C17.5592 17.3334 17.3759 17.4587 17.3401 17.6492L17.3275 17.7177C17.3214 17.7518 17.3152 17.7858 17.3085 17.8198L17.0151 19.2987C16.9882 19.4342 16.9944 19.576 17.033 19.7087L18.2938 23.7349C18.3384 23.8883 18.4785 23.988 18.6306 23.988C18.6631 23.988 18.696 23.9835 18.7287 23.974C18.9147 23.9199 19.0218 23.7252 18.9677 23.5391Z" fill="#191D2D"/>
<path d="M17.6356 11.5435V14.4887C17.6356 15.0509 17.6072 15.6211 17.5512 16.1837C17.532 16.3766 17.6728 16.5485 17.8657 16.5676C18.0586 16.5871 18.2305 16.446 18.2496 16.2532C18.3079 15.6676 18.3374 15.074 18.3374 14.4888V11.5435C18.3374 10.8361 17.7619 10.2606 17.0544 10.2606C16.3907 10.2606 15.829 10.7788 15.7756 11.4404L15.5858 13.7936C14.2306 14.8343 13.2746 16.3219 12.8916 17.9882L12.6386 19.0893C12.5952 19.2782 12.7131 19.4665 12.902 19.5099C12.9284 19.5159 12.9549 19.5188 12.9809 19.5188C13.1408 19.5188 13.2853 19.4089 13.3226 19.2464L13.5757 18.1453C13.9258 16.6221 14.8051 15.2639 16.0516 14.321L16.1347 14.2581C16.2145 14.1978 16.2647 14.1062 16.2727 14.0065L16.4751 11.4968C16.4993 11.1971 16.7538 10.9623 17.0544 10.9623C17.3749 10.9624 17.6356 11.2231 17.6356 11.5435Z" fill="#191D2D"/>
<path d="M12.5727 21.9282C12.5368 21.7829 12.4389 21.6623 12.3042 21.5973L12.1388 21.5174C11.2011 21.0647 10.481 20.2793 10.1114 19.3059L9.9791 18.9576H11.8239C12.0177 18.9576 12.1748 18.8005 12.1748 18.6067C12.1748 18.4129 12.0177 18.2558 11.8239 18.2558H6.94999C6.2718 18.2558 5.72007 17.7041 5.72007 17.0259V5.79342C5.72007 5.59962 5.56296 5.4425 5.36916 5.4425C5.17536 5.4425 5.01825 5.59962 5.01825 5.79342V17.0259C5.01825 18.0911 5.88481 18.9576 6.94999 18.9576H9.22838L9.45526 19.555C9.88894 20.697 10.7336 21.6184 11.8336 22.1495L11.914 22.1882L12.2955 23.7331C12.335 23.893 12.4783 24 12.6359 24C12.6638 24 12.6921 23.9966 12.7203 23.9896C12.9085 23.9432 13.0233 23.753 12.9769 23.5648L12.5727 21.9282Z" fill="#191D2D"/>
<path d="M5.36916 4.64887C5.56296 4.64887 5.72007 4.49175 5.72007 4.29795V1.93174C5.72007 1.25355 6.2718 0.701821 6.94999 0.701821H7.98382V0.952185C7.98382 1.72395 8.61167 2.35185 9.38348 2.35185H12.0886C12.8604 2.35185 13.4883 1.724 13.4883 0.952185V0.701821H14.5221C15.2003 0.701821 15.752 1.25355 15.752 1.93174V9.4788C15.752 9.6726 15.9092 9.82971 16.103 9.82971C16.2968 9.82971 16.4539 9.6726 16.4539 9.4788V1.93174C16.4538 0.866562 15.5872 0 14.5221 0H6.94999C5.88481 0 5.01825 0.866562 5.01825 1.93174V4.29795C5.01825 4.49175 5.17536 4.64887 5.36916 4.64887ZM12.7864 0.952185C12.7864 1.33697 12.4734 1.65003 12.0886 1.65003H9.38344C8.99865 1.65003 8.68559 1.33702 8.68559 0.952185V0.701821H12.7864V0.952185H12.7864Z" fill="#191D2D"/>
<path d="M12.4931 13.8717C12.2993 13.8717 12.1422 14.0288 12.1422 14.2226C12.1422 14.4164 12.2993 14.5736 12.4931 14.5736H13.4259C13.792 14.5736 14.0898 14.2757 14.0898 13.9097V12.5372C14.0898 12.1712 13.792 11.8734 13.4259 11.8734H8.04615C7.68013 11.8734 7.38232 12.1712 7.38232 12.5372V13.9097C7.38232 14.2757 7.68013 14.5736 8.04615 14.5736H10.9977C11.1915 14.5736 11.3486 14.4164 11.3486 14.2226C11.3486 14.0288 11.1915 13.8717 10.9977 13.8717H8.08415V12.5752H13.388V13.8717H12.4931Z" fill="#191D2D"/>
<path d="M14.196 4.67186C14.0611 4.53272 13.839 4.52911 13.6998 4.664L12.3206 6.00008C12.2016 5.93107 12.0639 5.89093 11.9167 5.89093H9.55529C9.10954 5.89093 8.74689 6.25358 8.74689 6.69933V8.91447C8.74689 9.36022 9.10954 9.72283 9.55529 9.72283H11.9167C12.3624 9.72283 12.7251 9.36022 12.7251 8.91447V6.69933C12.7251 6.66317 12.7219 6.62784 12.7173 6.59294L14.1881 5.1681C14.3273 5.03321 14.3309 4.81106 14.196 4.67186ZM12.0233 8.91437C12.0233 8.97314 11.9755 9.02091 11.9167 9.02091H9.55534C9.49657 9.02091 9.44876 8.97314 9.44876 8.91437V6.69924C9.44876 6.64047 9.49657 6.59266 9.55534 6.59266H11.7089L10.6244 7.64314L10.4099 7.45627C10.2638 7.32901 10.0421 7.34426 9.91481 7.49043C9.7875 7.63659 9.8028 7.85823 9.94897 7.98554L10.4066 8.38412C10.4729 8.44177 10.555 8.4704 10.637 8.4704C10.7253 8.4704 10.8134 8.43728 10.8812 8.37154L12.0233 7.26514V8.91437Z" fill="#191D2D"/>
</svg>
