<svg width="25" height="24" viewBox="0 0 25 24" fill="none" xmlns="http://www.w3.org/2000/svg">
<path d="M13.1974 24H1.70279C0.97101 24 0.378174 23.4068 0.378174 22.6753V1.32461C0.378174 0.592925 0.971103 0 1.70279 0H23.0537C23.7852 0 24.3782 0.592925 24.3782 1.32461V22.6753C24.3782 23.4069 23.7851 24 23.0537 24H16.9378V14.7059H20.0574L20.5246 11.0838H16.9378V8.77132C16.9378 7.72264 17.229 7.00801 18.7328 7.00801L20.6508 7.00717V3.76755C20.3191 3.7234 19.1806 3.62478 17.8559 3.62478C15.0906 3.62478 13.1974 5.31276 13.1974 8.4126V11.0838H10.0697V14.7059H13.1974V24Z" fill="#4E515D"/>
</svg>
