<svg width="184" height="80" viewBox="0 0 184 80" fill="none" xmlns="http://www.w3.org/2000/svg">
<path d="M24.4964 12.0358C24.9422 11.4163 25.3833 10.7672 25.9822 10.2849C26.3547 11.5923 27.045 12.8266 27.1022 14.2072C27.1456 14.7718 26.9399 15.3066 26.789 15.8415C26.6679 16.2369 26.5719 16.6415 26.4713 17.0438C26.8119 16.5318 27.1182 15.9718 27.6187 15.5946C29.2324 14.4403 31.3033 14.2095 33.2302 14.4175C33.0747 14.8952 32.741 15.2815 32.4667 15.6929C32.1307 16.1889 31.717 16.6255 31.2736 17.0255C30.1627 17.9466 28.7479 18.3763 27.349 18.6118C29.0633 18.6369 30.8187 19.1192 32.1719 20.2026C32.7776 20.6689 33.2347 21.2861 33.7513 21.8438C33.8839 21.9763 33.9524 22.1501 33.9387 22.3375C32.7776 22.3466 31.6462 22.6963 30.485 22.6506C29.573 22.6232 28.6267 22.4266 27.877 21.8803C27.0839 21.3546 26.4782 20.5683 26.1376 19.6815C26.0027 19.3318 25.9662 18.9478 25.8016 18.6095C25.7696 18.5821 25.7033 18.5295 25.669 18.5021C25.2759 18.1912 24.8599 17.9146 24.4553 17.6198C24.3364 17.5192 24.181 17.5238 24.037 17.5238C24.1284 17.4872 24.2199 17.4483 24.3136 17.4118C24.0507 16.9501 23.733 16.4998 23.6782 15.9558C23.3582 14.5958 23.8884 13.2289 24.4987 12.0358M19.8473 15.0918C19.941 14.4335 20.3113 13.8209 20.9079 13.5101C21.2873 13.8209 21.5662 14.2323 21.7627 14.6781C21.9136 14.6003 22.0667 14.5272 22.2222 14.4586C22.3844 14.8426 22.5742 15.2198 22.6587 15.6289C22.6587 15.8666 22.5262 16.0769 22.4484 16.2941C22.7867 16.6621 22.469 17.1649 22.3273 17.5512C22.1262 18.0861 21.5342 18.2346 21.0542 18.4083C20.821 18.4929 20.9284 18.8152 20.7707 18.9661C20.7547 18.7946 20.7433 18.6209 20.7387 18.4495C20.3867 18.2963 19.9662 18.2483 19.6919 17.9558C19.3582 17.6152 19.1067 17.1512 19.1456 16.6598C19.1639 16.3352 18.9833 16.0449 18.9604 15.7272C18.9764 15.3889 19.1159 15.0712 19.285 14.7855C19.4907 14.8563 19.685 14.9569 19.8542 15.0941M13.8382 16.3032C13.909 16.1272 14.0416 15.9123 14.245 15.8918C14.8279 16.0175 15.3467 16.3306 15.797 16.7146C15.8999 16.5249 16.005 16.3398 16.1102 16.1501C16.5376 16.1043 16.6884 16.5661 16.8393 16.8746C16.981 17.1009 16.8736 17.3569 16.805 17.5878C16.8736 17.5946 17.013 17.6083 17.0816 17.6152C17.2667 18.2049 17.2873 18.8723 17.077 19.4598C16.9262 19.9032 16.5124 20.1501 16.1947 20.4609C16.4073 20.9386 16.549 21.4529 16.8393 21.8941C17.045 21.2838 17.3376 20.6552 17.9044 20.2986C18.2016 20.0701 18.5833 20.0701 18.933 19.9992C19.205 19.8118 19.4176 19.5283 19.7399 19.4186C20.0484 19.2975 20.3844 19.3135 20.7113 19.3066C20.8873 19.4621 21.0542 19.6746 21.3056 19.6975C21.7856 19.7455 22.277 19.6381 22.7524 19.7546C23.1022 19.8643 23.4039 20.0861 23.6896 20.3101C23.7536 20.3695 23.8176 20.4289 23.877 20.4929C24.085 20.8152 24.3182 21.1809 24.2542 21.5832C24.1582 22.2049 23.6827 22.6666 23.4999 23.2586C23.8702 23.1261 24.1993 22.8998 24.5719 22.7741C24.9559 22.6849 25.4359 22.6941 25.6873 23.0483C26.2907 23.8209 26.4599 24.8723 26.3502 25.8255C26.2953 26.3261 25.6827 26.5386 25.6667 27.0461C25.6187 27.3546 25.6142 27.6838 25.4542 27.9626C25.1159 28.5615 24.5444 29.0026 23.9204 29.2746C23.4747 29.4712 22.9056 29.4941 22.5193 29.1558C21.7467 28.4723 21.3444 27.4941 21.0176 26.5386C21.061 27.3135 21.4839 28.0609 21.2896 28.8426C21.2096 29.2335 20.8599 29.5101 20.4804 29.5809C19.9524 29.6792 19.4176 29.5672 18.8919 29.5146C18.837 29.4598 18.7799 29.4049 18.725 29.3501C18.661 29.3432 18.5947 29.3363 18.5307 29.3295C18.0667 29.2243 17.6279 28.9775 17.3239 28.6072C17.0656 28.2941 17.1227 27.7775 16.7296 27.5741C16.3707 27.3409 16.0599 27.0369 15.829 26.6758C15.6416 26.1135 15.5913 25.5146 15.6233 24.9249C15.3559 25.2198 15.109 25.5649 14.7273 25.7226C14.4873 25.8323 14.2244 25.8826 13.9662 25.9123C13.941 25.8506 13.8907 25.7272 13.8656 25.6655C13.3353 25.7981 12.741 25.8461 12.2564 25.5443C12.3022 25.0369 12.6199 24.6278 12.9056 24.2323C12.8187 24.1249 12.7319 24.0152 12.6473 23.9078C12.965 23.4301 13.4542 23.0095 14.0599 23.0346C14.1193 22.7055 14.4827 22.6918 14.7502 22.6689C15.3399 22.7375 15.941 23.0232 16.2039 23.5855C16.5284 23.5649 16.8462 23.4803 17.1707 23.4735C17.6119 23.5169 18.0347 23.6678 18.4804 23.6838C17.9067 23.2723 17.2096 22.9706 16.8347 22.3375C16.5102 21.7569 16.2907 21.1261 16.0324 20.5135C15.5524 20.4586 15.0199 20.5135 14.6016 20.2301C14.277 20.0221 13.8542 19.7341 13.9844 19.2838C13.7604 19.0575 13.4267 18.8975 13.3422 18.5661C13.2599 18.3146 13.2644 18.0472 13.253 17.7866C13.4244 17.7775 13.5959 17.7706 13.7696 17.7615C13.701 17.2746 13.7079 16.7763 13.8336 16.3009M20.7502 23.1009C20.7387 23.3112 20.7273 23.5215 20.7067 23.7318C20.5399 23.6426 20.4324 23.4895 20.3456 23.3249C20.341 23.4072 20.3342 23.5718 20.3296 23.6541C20.133 23.5306 19.957 23.3821 19.7833 23.2312C19.9639 23.5192 20.3182 23.7135 20.3639 24.0701C20.2176 24.0266 20.0736 23.9786 19.9273 23.9306C19.9639 24.0221 20.0004 24.1135 20.037 24.2072C19.845 24.1638 19.653 24.1181 19.4633 24.0723C19.6576 24.2049 19.861 24.3215 20.0622 24.4449C19.8473 24.6232 19.5387 24.5843 19.2827 24.6758C19.5593 24.6712 19.8404 24.6643 20.117 24.7032C20.0644 24.8883 19.8382 24.8335 19.6964 24.8723C19.829 24.8975 19.9639 24.9226 20.0964 24.9501C19.9502 25.3409 19.4724 25.2792 19.1684 25.4666C19.3627 25.4323 19.557 25.3958 19.7559 25.3752C19.6736 25.5466 19.5547 25.6952 19.413 25.8209C19.6782 25.6792 19.9662 25.5923 20.2564 25.5169C20.1856 25.7203 20.1033 25.9192 20.021 26.1203C20.2473 26.0769 20.3639 25.8666 20.5102 25.7112C20.5147 25.7843 20.5239 25.9352 20.5284 26.0083C20.5582 25.9718 20.6176 25.9009 20.6473 25.8666C20.725 25.9466 20.8004 26.0289 20.8782 26.1089C20.9239 25.9283 20.965 25.7478 21.0062 25.5672C21.1502 25.5672 21.2987 25.5443 21.4427 25.5786C21.6347 25.6998 21.7947 25.8621 21.9753 25.9992C21.8793 25.7683 21.7696 25.5421 21.6736 25.3135C21.8519 25.4095 22.021 25.5215 22.1879 25.6358C22.0873 25.4986 21.989 25.3615 21.893 25.2221C22.0347 25.2381 22.1787 25.2586 22.3204 25.2792C22.1833 25.1901 22.0484 25.0986 21.9182 25.0049C22.1102 24.9181 22.3113 24.8495 22.5147 24.7901C22.3684 24.7741 22.2244 24.7558 22.0827 24.7306C22.1742 24.6529 22.277 24.5912 22.3867 24.5432C22.325 24.5432 22.197 24.5432 22.1353 24.5432C22.1399 24.4975 22.149 24.4061 22.1513 24.3603C21.9936 24.3558 21.8359 24.3489 21.6804 24.3375C21.7787 24.2369 21.8816 24.1432 21.9867 24.0495C21.9113 24.0449 21.7604 24.0358 21.685 24.0312C21.8039 23.8415 21.9433 23.6655 22.085 23.4941C21.8427 23.6175 21.6142 23.7661 21.3902 23.9215C21.3856 23.8529 21.3742 23.7158 21.3696 23.6472C21.2782 23.6998 21.1867 23.7501 21.0953 23.8026C21.0907 23.7363 21.0862 23.6061 21.0816 23.5398C21.0199 23.5992 20.9559 23.6563 20.8942 23.7158C20.8439 23.5101 20.7982 23.3043 20.7456 23.1009M20.8233 24.3489C21.0999 24.4038 21.5707 24.5912 21.4564 24.9455C21.3627 25.1512 21.125 25.2083 20.9216 25.1901C20.6862 25.1238 20.5536 24.8998 20.4256 24.7101C20.5536 24.5843 20.6656 24.4335 20.8256 24.3489H20.8233ZM7.13644 28.3421C7.5913 28.4678 7.95701 28.7901 8.39358 28.9638C8.98101 29.2038 9.60501 29.3386 10.229 29.4346C11.1456 29.6175 12.085 29.4438 13.0039 29.5901C13.2827 29.6152 13.589 29.6815 13.8427 29.5215C13.8427 29.5558 13.8496 29.6289 13.8519 29.6632C14.2884 29.8301 14.7479 29.9443 15.1616 30.1683C15.7353 30.4746 16.2519 30.8883 16.6839 31.3752C17.157 31.9169 17.3262 32.6346 17.6804 33.2472C17.6347 33.6152 17.6142 33.9901 17.6644 34.3581C17.6942 34.2941 17.7536 34.1683 17.7833 34.1043C18.0324 32.5866 18.2199 31.0278 18.8667 29.6152C18.6222 31.0941 18.2336 32.5592 18.1742 34.0609C18.181 34.0952 18.1924 34.1638 18.1993 34.1981C19.3787 33.6472 20.6359 33.2632 21.925 33.0803C22.4919 32.9843 23.0702 32.9523 23.6347 32.8358C23.0084 32.8563 22.3799 32.8152 21.7582 32.8792C21.1707 32.9661 20.5902 33.0712 20.005 33.1626C20.101 32.8106 20.2816 32.4883 20.5307 32.2232C21.0679 31.5649 21.8359 31.0186 22.7182 31.0346C23.8839 31.0826 24.9993 31.4712 26.0942 31.8438C26.5262 31.9649 26.9856 32.1775 27.4382 32.0198C27.541 32.1112 27.6439 32.2026 27.749 32.2941C27.1867 32.7992 26.613 33.2952 26.021 33.7661C25.1113 34.3946 24.085 34.9066 22.9764 35.0438C22.3502 35.1215 21.717 35.0575 21.0907 35.1123C21.1753 35.2335 21.2827 35.3409 21.429 35.3843C22.6244 35.8163 23.7056 36.6072 24.4119 37.6723C24.9422 38.4609 25.3216 39.3569 25.4976 40.2941C25.3239 40.3283 25.1456 40.3306 24.9719 40.3283C25.0496 41.9398 25.5662 43.5192 26.3707 44.9112C27.2393 46.4381 28.5353 47.6952 30.0119 48.6278C31.2119 49.4072 32.5193 49.9992 33.8267 50.5706C32.9627 50.7261 32.0713 51.1032 31.5753 51.8689C31.237 52.4083 31.0222 53.0141 30.6702 53.5466C30.5993 53.0552 30.6953 52.5386 30.4942 52.0701C30.245 51.2403 29.6599 50.5889 29.1616 49.9032C28.341 48.9935 27.6576 47.9718 26.9262 46.9912C26.3502 46.0381 25.8016 45.0529 25.4427 43.9923C25.0176 42.7832 24.6542 41.5352 24.5604 40.2506C23.813 40.1821 23.0724 40.0449 22.3433 39.8643C21.1936 39.5421 20.3204 38.6689 19.6073 37.7501C19.9616 38.6003 20.3799 39.4506 20.4439 40.3878C20.4827 41.0735 20.4873 41.7661 20.4279 42.4518C20.3479 42.9935 20.2336 43.5283 20.1307 44.0655C20.0919 44.1821 20.0416 44.2963 19.9936 44.4106C20.0279 44.4975 20.0644 44.5843 20.101 44.6735C20.053 44.6689 19.9593 44.6598 19.9113 44.6552C19.8633 44.8815 19.813 45.1101 19.7582 45.3363C18.7113 44.4266 17.749 43.3706 17.1433 42.1089C16.8462 41.5009 16.5742 40.8609 16.5307 40.1752C16.485 39.3981 16.5056 38.6209 16.5307 37.8438C16.3113 38.6095 15.9753 39.3569 15.4404 39.9558C14.5147 41.0026 13.221 41.6769 11.8724 41.9878C11.8656 41.0826 11.813 40.1615 12.037 39.2746C12.3456 37.6632 13.1776 36.0403 14.6404 35.2015C14.821 35.0872 14.9993 34.9729 15.1753 34.8518C14.7067 34.8381 14.2336 34.8221 13.7764 34.7055C13.2279 34.5752 12.7273 34.3123 12.2176 34.0792C12.1696 34.1501 12.1216 34.2255 12.0759 34.2986C12.0142 33.8621 11.5273 33.7386 11.2462 33.4666C10.0119 32.3421 8.79587 31.1626 7.92044 29.7226C7.6553 29.2586 7.27816 28.8518 7.13416 28.3283M10.4279 30.8061C10.8987 31.0369 11.3787 31.2563 11.8793 31.4163C13.7124 32.1706 15.4496 33.1306 17.1707 34.1112C15.9502 33.0278 14.4736 32.2849 12.9719 31.6769C12.1193 31.3981 11.3102 30.9981 10.4279 30.8061ZM15.6942 36.2643C14.7799 37.2609 14.0987 38.4381 13.3559 39.5603C13.8953 39.0552 14.2404 38.3878 14.7433 37.8483C15.5684 36.7992 16.4736 35.8141 17.2804 34.7489C16.7684 35.2723 16.1559 35.6906 15.6942 36.2643ZM17.749 34.8243C17.7444 35.4598 17.7284 36.0975 17.7536 36.7329C17.941 38.1341 18.0919 39.5558 18.5444 40.9021C18.5079 39.4461 18.1193 38.0243 18.0119 36.5729C17.9136 35.9923 17.8473 35.4049 17.7513 34.8243M39.9913 31.3066C40.4027 31.7432 40.8782 32.2529 40.837 32.8998C40.8462 33.2335 40.4553 33.4163 40.165 33.3592C39.4176 33.2563 38.9399 32.6118 38.485 32.0769C38.885 32.4152 39.3422 32.6895 39.8564 32.8038C39.9799 32.3146 40.0004 31.8095 39.9913 31.3066ZM42.885 36.9523C42.5879 35.7866 42.7593 34.4929 43.4724 33.5078C43.4359 33.6541 43.4062 33.8026 43.3742 33.9512C43.5113 33.9512 43.6507 33.9489 43.7879 33.9261C43.3856 34.2941 43.0679 34.7695 42.9696 35.3135C42.901 35.7546 42.7159 36.2735 43.0496 36.6506C43.0176 36.6598 42.9536 36.6758 42.9216 36.6826C42.9124 36.7512 42.8941 36.8838 42.885 36.9523ZM40.821 41.8369C41.2416 41.5306 41.8062 41.5992 42.2816 41.7203C42.1353 41.8095 41.973 41.8689 41.8107 41.9192C41.461 42.0152 41.173 42.2712 40.8027 42.2941C40.8073 42.1409 40.8142 41.9878 40.8187 41.8369H40.821ZM42.6153 43.9078C42.6793 44.1729 42.8439 44.4403 42.7959 44.7192C42.5742 45.2792 42.0942 45.7181 41.5296 45.9169C41.6484 46.2758 41.8084 46.6621 41.6827 47.0415C41.605 47.2952 41.3879 47.4598 41.205 47.6358C40.629 47.5923 40.0187 47.7158 39.4839 47.4415C38.5056 47.0323 37.989 46.0266 37.093 45.5009C37.0999 45.4781 37.1159 45.4323 37.1227 45.4118C37.5296 45.3706 37.9456 45.4232 38.3433 45.3158C38.9993 45.1809 39.5867 44.8495 40.1604 44.5203C40.4736 44.3581 40.805 44.1615 41.1707 44.1889C41.4336 44.2529 41.653 44.4266 41.877 44.5729C42.1284 44.4769 42.3799 44.3741 42.613 44.2392C42.613 44.1569 42.613 43.9946 42.613 43.9123M39.4199 54.5889C39.7627 53.8072 40.4553 53.2175 41.2439 52.9181C41.2599 53.2883 41.2782 53.6609 41.2439 54.0312C41.2004 54.5295 40.9353 54.9683 40.7707 55.4323C41.269 55.2381 41.7513 54.9843 42.2862 54.9135C42.933 54.8335 43.589 54.9043 44.2199 55.0575C43.9981 55.6061 43.4679 55.9306 43.0862 56.3558L43.0244 56.4061C42.4782 56.6803 41.893 56.8906 41.2759 56.9181C41.8404 57.1763 42.4164 57.4483 42.8644 57.8918C43.3353 58.3558 43.7353 58.8952 44.0164 59.4941C42.7593 59.6289 41.4564 59.2518 40.4462 58.4952C39.8473 58.0563 39.5867 57.3409 39.221 56.7261C39.0359 56.9363 39.1159 57.2243 39.1182 57.4781C38.8073 57.0529 38.4987 56.6232 38.2313 56.1683C37.9502 55.6975 37.5776 55.2358 37.0267 55.0803C37.1044 55.6015 37.0679 56.1295 37.1113 56.6552C37.2324 57.1718 37.6439 57.6815 37.4039 58.2323C37.221 58.8723 36.613 59.2472 36.0187 59.4392C35.5936 59.4461 35.1707 59.4963 34.7456 59.4689C34.7044 58.9706 34.7936 58.4655 35.0404 58.0266C34.965 57.9695 34.8919 57.9146 34.8187 57.8598C34.965 57.5283 35.1433 57.1901 35.4587 56.9935C35.8839 56.6803 36.4279 56.6941 36.9284 56.6392C37.0016 56.1203 37.0062 55.5741 36.8187 55.0758C36.629 54.9272 36.3753 54.9409 36.149 54.9181C36.0233 55.4186 35.8084 56.0129 35.253 56.1615C34.7959 56.2346 34.2953 56.2803 33.8633 56.0861C33.9273 55.9855 33.9936 55.8895 34.0599 55.7935C33.5867 55.7546 33.1547 55.5466 32.8073 55.2243C33.1456 54.8975 33.4496 54.5386 33.7856 54.2095C34.2176 53.9055 34.7936 53.8003 35.3056 53.9329C35.6759 54.0358 35.8747 54.3992 36.0713 54.6986C36.4233 54.7398 36.7867 54.7421 37.1296 54.8495C37.5707 55.0072 37.8496 55.4049 38.2176 55.6769C38.4964 55.8872 38.837 55.9901 39.1684 56.0883C39.2027 55.5809 39.1867 55.0506 39.4176 54.5866M38.4324 56.0358C38.5239 56.2758 38.6656 56.4929 38.8462 56.6781C38.9284 56.6026 39.013 56.5295 39.0976 56.4541C38.9124 56.2598 38.6884 56.1112 38.4324 56.0358ZM37.7079 59.0483C38.0302 58.6163 38.5742 58.4655 38.9604 58.1021C39.173 58.5341 39.7102 58.7283 39.8382 59.2038C39.845 59.6335 39.8724 60.0998 39.6759 60.4952C39.589 60.4678 39.5022 60.4403 39.4153 60.4129C39.4656 60.6118 39.589 60.8678 39.381 61.0209C39.0244 61.3523 38.7182 61.7752 38.2496 61.9603C38.0187 61.7318 37.9296 61.4186 37.8199 61.1215C37.7627 60.8678 37.3467 60.8701 37.381 60.5821C37.4473 60.0678 37.3239 59.4575 37.7102 59.0461L37.7079 59.0483Z" fill="#E42B5F"/>
<path d="M27.4587 15.126C29.1776 14.0494 31.1799 13.4254 33.2073 13.366C34.9056 13.3134 36.613 13.6311 38.1856 14.2825C39.5936 14.8448 40.853 15.7294 41.973 16.7442C42.9993 17.686 43.8084 18.8402 44.4919 20.0494C43.173 19.4802 41.7376 18.9545 40.277 19.1671C41.5959 19.3271 42.8644 19.7522 44.053 20.3351C45.4039 20.934 46.6564 21.7637 47.717 22.7922C47.0656 22.4562 46.3456 22.2345 45.6096 22.246C44.3524 22.2505 43.1227 22.5362 41.8976 22.7808C41.0244 22.934 40.1444 23.0414 39.2576 23.0825C38.6519 23.19 38.0439 23.0711 37.4382 23.0574C36.4439 22.9682 35.477 22.6871 34.5353 22.3648C34.3662 22.2985 34.1787 22.2894 34.0187 22.3831C34.3639 22.582 34.7387 22.7237 35.1022 22.886C33.8793 23.03 32.6496 23.1945 31.4656 23.542C30.6176 23.7888 29.7582 24.0197 28.9559 24.3968C28.1467 24.7648 27.301 25.11 26.6176 25.6928C26.9833 25.5648 27.3239 25.382 27.6759 25.2197C29.9662 24.1431 32.4644 23.5648 34.9742 23.334C35.4039 23.2814 35.8382 23.2357 36.2702 23.2974C35.9936 23.5351 35.605 23.5237 35.2782 23.654C33.9867 24.118 32.9399 25.0985 32.1856 26.2277C31.093 27.8414 30.1833 29.6151 28.7524 30.9683C28.3342 31.3454 27.9204 31.7362 27.4336 32.0242C26.9833 32.1797 26.5239 31.9671 26.0896 31.8482C24.9947 31.4757 23.8793 31.0871 22.7136 31.0391C21.8313 31.0231 21.0633 31.5694 20.5262 32.2277C20.277 32.4928 20.0964 32.8151 20.0004 33.1671C19.3582 33.3934 18.7547 33.718 18.1696 34.0631C18.229 32.5614 18.6153 31.0962 18.8622 29.6174L18.8942 29.5191C19.4199 29.5717 19.9547 29.6814 20.4827 29.5854C20.8622 29.5145 21.2119 29.238 21.2919 28.8471C21.4862 28.0631 21.0633 27.3157 21.0199 26.5431C21.3467 27.4962 21.749 28.4768 22.5216 29.1602C22.9079 29.4985 23.4747 29.4734 23.9227 29.2791C24.5444 29.0071 25.1159 28.5637 25.4564 27.9671C25.6164 27.6882 25.621 27.3591 25.669 27.0528C25.685 26.5431 26.2976 26.3328 26.3524 25.8322C26.4622 24.8791 26.293 23.8277 25.6896 23.0551C25.4382 22.6985 24.9559 22.6917 24.5742 22.7808C24.2016 22.9042 23.8724 23.1328 23.5022 23.2654C23.685 22.6757 24.1627 22.2117 24.2564 21.59C24.3182 21.1877 24.0873 20.822 23.8793 20.4997C24.4507 19.8048 25.1456 19.2334 25.797 18.6162C25.9616 18.9545 25.9982 19.3385 26.133 19.6882C26.4736 20.5751 27.0793 21.3614 27.8724 21.8871C28.6244 22.4334 29.5684 22.63 30.4804 22.6574C31.6439 22.7031 32.7753 22.3557 33.9342 22.3442C33.9479 22.1568 33.8816 21.9831 33.7467 21.8505C33.2302 21.2928 32.773 20.6757 32.1673 20.2094C30.8142 19.126 29.0587 18.6414 27.3444 18.6185C28.7456 18.3831 30.1604 17.9534 31.269 17.0322C31.7124 16.6322 32.1262 16.1957 32.4622 15.6997C32.7364 15.2882 33.0702 14.902 33.2256 14.4242C31.2987 14.2162 29.2302 14.4494 27.6142 15.6014C27.1136 15.9785 26.8073 16.5362 26.4667 17.0505C26.5673 16.6482 26.6633 16.2437 26.7844 15.8482C26.8622 15.5031 27.1822 15.3157 27.4542 15.1328M21.1684 18.9157C22.0782 18.3625 23.013 17.8277 24.0393 17.5214C24.1833 17.5214 24.3387 17.5191 24.4576 17.6174C24.8622 17.9122 25.2782 18.1888 25.6713 18.4997C24.9262 19.0002 24.3136 19.6608 23.6987 20.31C23.413 20.086 23.1113 19.8642 22.7616 19.7545C22.2862 19.638 21.7947 19.7454 21.3147 19.6974C21.0633 19.6768 20.8964 19.462 20.7204 19.3065C20.8439 19.1488 20.997 19.0162 21.1707 18.9157M42.7822 23.0962C44.1559 22.8791 45.589 22.534 46.9559 22.9774C48.0096 23.2722 48.8324 24.1545 49.1502 25.1922C49.6347 26.7237 49.3924 28.3831 48.9353 29.8917C48.4782 31.4825 47.7056 33.0322 47.7582 34.7237C47.7444 36.358 48.437 37.9191 49.3993 39.2105C50.5924 40.8631 52.2359 42.0974 53.6393 43.5557C54.7776 44.71 55.7879 46.0265 56.3982 47.5397C57.045 49.2563 57.0313 51.2288 56.3022 52.918C55.9182 53.8483 55.3673 54.7054 54.6999 55.4528C54.389 55.8071 54.0919 56.1842 53.6964 56.4471C53.9113 56.006 54.2199 55.6197 54.437 55.1808C55.1387 53.8825 55.5296 52.3534 55.237 50.8837C54.9422 49.0528 53.7102 47.5397 52.3296 46.3831C51.0702 45.2768 49.589 44.4722 48.1399 43.6494C48.2702 44.5865 48.4622 45.5214 48.4987 46.4723C48.629 47.5717 48.6039 48.6803 48.6153 49.7865C48.6062 50.8563 48.6313 51.926 48.5947 52.9934C47.6073 52.5454 46.6382 52.0174 45.8336 51.2837C45.2736 50.7694 44.8644 50.1065 44.6404 49.3797C44.629 50.6985 45.2622 52.022 46.3182 52.8197C47.125 53.4597 48.1056 53.8071 49.0267 54.2437C50.4667 54.8837 51.8793 55.6951 52.9033 56.9202C53.4519 57.5831 53.8404 58.3785 54.0073 59.2242C54.133 60.2254 54.0644 61.27 53.6667 62.2071C53.0656 63.6928 51.909 64.8974 50.5742 65.7523C49.6599 66.3465 48.6199 66.6985 47.5707 66.9614C47.429 66.9934 47.2827 66.998 47.1387 67.0094C48.2473 66.5248 49.3513 65.9717 50.2039 65.0917C51.0999 64.166 51.8016 62.9248 51.7307 61.5991C51.7147 60.3694 50.9764 59.206 49.9296 58.5865C48.8233 57.9214 47.5296 57.7043 46.3067 57.3431C45.2187 57.0597 44.1719 56.6505 43.0884 56.3511C43.4724 55.9237 44.0004 55.5991 44.2222 55.0528C43.5913 54.8997 42.9353 54.8288 42.2884 54.9088C41.7536 54.9797 41.2713 55.2334 40.773 55.4277C40.9376 54.9637 41.2027 54.5248 41.2462 54.0265C41.2804 53.6562 41.2622 53.2837 41.2462 52.9134C40.4576 53.2128 39.765 53.8048 39.4222 54.5843C39.1913 55.0505 39.2073 55.5808 39.173 56.086C38.8416 55.9854 38.501 55.8848 38.2222 55.6745C37.8564 55.4048 37.5753 55.0048 37.1342 54.8471C36.7913 54.7397 36.4279 54.7374 36.0759 54.6963C35.8793 54.3968 35.6827 54.0334 35.3102 53.9305C34.7959 53.798 34.2222 53.9031 33.7902 54.2071C33.4542 54.5363 33.1502 54.8951 32.8119 55.222C33.1593 55.542 33.5913 55.7523 34.0644 55.7911C33.9982 55.8871 33.9319 55.9831 33.8679 56.0837C34.3022 56.278 34.8004 56.2323 35.2576 56.1591C35.813 56.0105 36.0279 55.4162 36.1536 54.9157C36.3799 54.9385 36.6336 54.9248 36.8233 55.0734C37.0084 55.5717 37.0039 56.1157 36.933 56.6368C36.4347 56.6917 35.8884 56.678 35.4633 56.9911C35.1479 57.1877 34.9696 57.5283 34.8233 57.8574C34.8964 57.9123 34.9696 57.9671 35.045 58.0243C34.7959 58.4631 34.7067 58.9683 34.7502 59.4665C35.1753 59.494 35.5982 59.4437 36.0233 59.4368C36.6176 59.2448 37.2256 58.8722 37.4084 58.2323C37.6484 57.6814 37.237 57.1717 37.1136 56.6551C37.0702 56.1294 37.1067 55.6014 37.029 55.0802C37.5799 55.2334 37.9524 55.6974 38.2336 56.1683C38.501 56.6231 38.8073 57.0505 39.1204 57.478C39.1204 57.2243 39.0404 56.9362 39.2233 56.726C39.5913 57.3408 39.8519 58.0563 40.4507 58.4951C41.4587 59.254 42.7639 59.6288 44.021 59.494C43.7376 58.8951 43.3376 58.3557 42.869 57.8917C42.421 57.4482 41.845 57.174 41.2804 56.918C41.8976 56.8905 42.4804 56.6802 43.029 56.406C44.9444 57.3134 46.9787 57.942 48.9559 58.6962C47.3399 61.8437 43.925 64.0197 40.373 63.9808C37.8564 63.9877 35.3422 62.8243 33.8016 60.8151C33.6667 60.63 33.5387 60.438 33.3696 60.2848C33.1913 61.0505 32.9924 61.8231 33.029 62.6185C32.9444 64.5774 33.9433 66.4471 35.3696 67.734C36.421 68.6414 37.6667 69.3751 39.029 69.6791C38.4644 69.7751 37.8999 69.6494 37.3353 69.6288C35.2987 69.4391 33.2896 68.7534 31.6393 67.526C30.0919 66.358 28.8964 64.6597 28.5193 62.7351C28.3707 61.9328 28.2519 61.1077 28.3913 60.2962C28.469 58.806 28.9879 57.3843 29.589 56.0334C29.9776 55.2197 30.4027 54.4197 30.6724 53.5557C31.0244 53.0231 31.2393 52.4174 31.5776 51.878C32.0713 51.1123 32.9627 50.7351 33.829 50.5797C35.3422 51.0825 36.8507 51.6791 38.4507 51.8505C39.0496 51.9123 39.6759 51.6585 40.037 51.1671C40.5742 50.4585 40.6633 49.5305 40.6359 48.6688C40.5627 48.2323 40.9376 47.9168 41.2096 47.6334C41.3924 47.4597 41.6096 47.2928 41.6873 47.0391C41.813 46.6597 41.653 46.2734 41.5342 45.9145C42.101 45.718 42.581 45.2768 42.8027 44.7168C42.8507 44.438 42.6862 44.1705 42.6222 43.9054C42.5444 43.5191 42.3822 42.9545 42.8027 42.71C43.2142 42.4151 43.7536 42.278 44.0484 41.8368C44.4164 41.4231 44.2679 40.8128 44.0576 40.358C43.5639 39.2631 43.1136 38.1362 42.8919 36.95C42.901 36.8814 42.9193 36.7488 42.9284 36.6802C42.9604 36.6711 43.0244 36.6551 43.0587 36.6482C43.653 36.838 44.2656 36.9477 44.8919 36.9134C44.693 36.5248 44.469 36.0882 44.6176 35.6448C44.8484 34.8791 45.1753 34.1408 45.3124 33.3477C44.7959 33.51 44.2907 33.6997 43.797 33.9214C43.6599 33.9443 43.5204 33.9488 43.3833 33.9488C43.413 33.8002 43.4427 33.6517 43.4816 33.5054C43.9342 32.7374 44.821 32.4631 45.5822 32.1157C45.5913 31.5671 45.445 31.03 45.4747 30.4791C45.4999 29.3637 45.3879 28.246 45.1136 27.1648C44.7364 25.6311 43.9616 24.1682 42.7936 23.0962M37.7102 59.0482C37.3239 59.4574 37.4473 60.07 37.381 60.5843C37.3467 60.8722 37.7627 60.8723 37.8199 61.1237C37.9296 61.4185 38.021 61.7317 38.2496 61.9625C38.7159 61.7797 39.0222 61.3568 39.381 61.0231C39.589 60.8677 39.4656 60.614 39.4153 60.4151C39.5022 60.4425 39.589 60.4677 39.6759 60.4974C39.8747 60.102 39.8473 59.6357 39.8404 59.206C39.7124 58.7282 39.1776 58.5363 38.9627 58.1043C38.5787 58.4654 38.0347 58.6163 37.7124 59.0505M15.8313 26.6802C16.0644 27.0414 16.373 27.3454 16.7319 27.5785C17.125 27.782 17.0679 28.2985 17.3262 28.6117C17.6302 28.982 18.0713 29.2288 18.5353 29.334C18.1673 30.6185 17.8062 31.9145 17.6782 33.2494C17.3239 32.6368 17.1547 31.9168 16.6816 31.3774C16.2496 30.8905 15.733 30.4768 15.1593 30.1705C14.7456 29.9465 14.2862 29.8322 13.8496 29.6654C13.8496 29.6311 13.8427 29.558 13.8404 29.5237C14.357 28.4882 15.0839 27.5625 15.829 26.6802M34.8713 30.1797C36.2107 30.0197 37.6119 30.0631 38.8713 30.5888C39.2782 30.7694 39.6736 30.9911 39.9913 31.3065C40.0004 31.8071 39.9799 32.3145 39.8564 32.8037C39.3399 32.6894 38.8827 32.4151 38.485 32.0768C37.3833 31.0002 35.7627 30.6254 34.2656 30.758C33.5502 30.8083 32.8827 31.0711 32.2039 31.2745C32.9284 30.6048 33.9364 30.3877 34.8713 30.1797ZM33.0382 33.5282C33.6142 33.99 34.1879 34.4677 34.8439 34.8174C35.7033 35.2722 36.6199 35.622 37.5684 35.83C38.0302 35.9351 38.5056 35.8711 38.9719 35.9465C38.8599 36.0197 38.7479 36.0928 38.6199 36.1362C38.229 36.2757 37.845 36.4448 37.429 36.4951C37.4176 36.5317 37.3924 36.6048 37.381 36.6414C37.1662 36.5911 36.949 36.55 36.7296 36.5842C36.597 36.5911 36.4804 36.6505 36.3616 36.7031C36.3342 36.6528 36.2839 36.5545 36.2587 36.5042C35.8976 36.5203 35.5593 36.3717 35.221 36.262C35.0633 36.166 34.9193 36.0425 34.7204 36.0814C34.7067 36.0311 34.6793 35.9305 34.6656 35.8802C34.5262 35.814 34.3913 35.7408 34.2587 35.6677C34.2473 35.5785 34.2359 35.494 34.229 35.4048C34.0667 35.3454 33.909 35.2837 33.749 35.2265C33.749 35.1374 33.7513 35.0483 33.7559 34.9614C33.6279 34.8722 33.4976 34.7831 33.3719 34.6917C33.3879 34.2734 33.0427 33.9488 33.0359 33.5282M12.0782 34.3122C12.1239 34.2391 12.1719 34.1637 12.2199 34.0928C12.7296 34.326 13.2302 34.5888 13.7787 34.7191C14.2359 34.8357 14.709 34.8517 15.1776 34.8654C14.9993 34.9842 14.821 35.1008 14.6427 35.2128C13.1822 36.0517 12.3479 37.6745 12.0393 39.286C11.8153 40.1728 11.8679 41.094 11.8747 41.9991C13.2233 41.6882 14.5193 41.014 15.4427 39.9671C15.9776 39.3682 16.3136 38.6208 16.533 37.8551C16.5056 38.6322 16.485 39.4094 16.533 40.1865C16.5764 40.8722 16.8484 41.5122 17.1456 42.1202C17.7513 43.382 18.7136 44.438 19.7604 45.3477C19.8153 45.1214 19.8633 44.8928 19.9136 44.6665C19.9616 44.6711 20.0553 44.6803 20.1033 44.6848C20.4027 45.1694 20.7959 45.622 20.9353 46.1865C21.1502 49.1808 20.0713 52.166 18.2999 54.55C17.0564 56.2597 15.4724 57.6951 13.7422 58.8951C12.6656 57.3591 11.9319 55.606 11.3422 53.8323C10.3776 50.9043 10.0804 47.8003 10.0804 44.7305C10.1902 41.5031 10.6839 38.2711 11.733 35.2128C11.845 34.9111 11.9159 34.5911 12.0804 34.31M19.6073 37.7637C20.3204 38.6825 21.1936 39.5534 22.3433 39.878C22.2907 41.2837 22.7479 42.6277 23.109 43.9648C24.0942 47.174 24.0279 50.694 22.9444 53.8711C22.8279 54.2025 22.7159 54.5363 22.5536 54.8494C22.5536 54.31 22.7433 53.798 22.7936 53.2654C22.9102 52.5842 22.901 51.8917 22.901 51.2037C22.933 49.4551 22.3707 47.7431 21.5319 46.2254C21.1296 45.4711 20.6862 44.7305 20.1307 44.0791C20.2336 43.542 20.3456 43.0071 20.4279 42.4654C20.4896 41.7797 20.4827 41.0871 20.4439 40.4014C20.3822 39.4665 19.9639 38.614 19.6073 37.7637ZM38.4324 56.0357C38.6884 56.1111 38.9147 56.2597 39.0976 56.454C39.013 56.5271 38.9284 56.6025 38.8462 56.678C38.6656 56.4928 38.5262 56.2757 38.4324 56.0357Z" fill="#191D2D"/>
<path d="M65.2644 31.6997H70.6953C70.7524 33.0208 70.2427 34.3534 69.3033 35.318C68.3067 36.3397 66.9764 36.8357 65.5616 36.7145C63.1296 36.5157 60.5467 34.326 60.5467 30.662C60.5467 26.7671 63.3307 24.646 65.9456 24.6277C67.5936 24.6277 69.0999 25.43 70.0736 26.8311L70.2564 27.094L72.053 26.0082L71.8016 25.702C70.5261 24.1454 68.4073 23.2791 65.9936 23.3202C62.0736 23.398 57.9067 25.9968 57.9067 30.6597C57.9067 35.3225 62.0279 37.9625 65.9067 37.9625C68.3593 37.9625 69.9684 36.6985 70.9787 35.3934L71.2301 37.6791H73.1753V30.3168H65.2644V31.6974V31.6997Z" fill="#E42B5F"/>
<path d="M78.5924 36.5682C78.3639 36.3373 78.3753 35.6653 78.3821 35.1739C78.3821 35.0756 78.3844 34.9819 78.3844 34.8927V23.6584H75.9341V34.8927C75.9341 35.7339 75.9867 36.6779 76.6084 37.2607C77.0176 37.6424 77.605 37.8253 78.4393 37.8253C78.5764 37.8253 78.7204 37.8207 78.8713 37.8116L79.1913 37.791V36.6573H78.8484C78.6953 36.6573 78.629 36.607 78.5901 36.5682H78.5924Z" fill="#E42B5F"/>
<path d="M86.0599 27.6653C82.8279 27.6653 80.4804 29.8276 80.4804 32.8036C80.4804 35.7796 82.8256 37.9601 86.0599 37.9601C89.2941 37.9601 91.6576 35.791 91.6576 32.8036C91.6576 29.8161 89.3033 27.6653 86.0599 27.6653ZM86.0599 28.8219C87.9387 28.8219 89.1524 30.3853 89.1524 32.8059C89.1524 35.2264 87.9387 36.8081 86.0599 36.8081C84.181 36.8081 82.9696 35.2379 82.9696 32.8059C82.9696 30.3739 84.1833 28.8219 86.0599 28.8219Z" fill="#E42B5F"/>
<path d="M105.276 35.567L101.886 27.9487H101.034L97.3741 35.5487L94.661 27.9487H92.0553L95.5478 37.6813H97.6187L100.688 31.2173L103.424 37.6813H105.71L109.344 27.9487H108.124L105.276 35.567Z" fill="#E42B5F"/>
<path d="M117.584 31.6997H123.015C123.072 33.0208 122.563 34.3534 121.623 35.318C120.627 36.3397 119.299 36.8357 117.882 36.7145C115.452 36.5157 112.867 34.326 112.867 30.662C112.867 26.7671 115.651 24.646 118.266 24.6277C119.914 24.6277 121.42 25.43 122.394 26.8311L122.576 27.094L124.373 26.0082L124.122 25.702C122.846 24.1454 120.727 23.2791 118.314 23.3202C114.394 23.398 110.227 25.9968 110.227 30.6597C110.227 35.3225 114.348 37.9625 118.227 37.9625C120.679 37.9625 122.288 36.6985 123.296 35.3934L123.548 37.6791H125.493V30.3168H117.582V31.6974L117.584 31.6997Z" fill="#E42B5F"/>
<path d="M137.13 34.4289C136.435 35.526 135.509 36.6963 133.31 36.6963C130.755 36.6963 130.037 35.0163 129.918 33.4712H138.083V32.7512C138.083 29.6632 136.003 27.6677 132.787 27.6677C130.195 27.6677 127.395 29.6243 127.395 32.7877C127.395 35.9512 129.674 37.9649 133.068 37.9649C135.338 37.9649 137.02 36.9477 138.064 34.9409L138.224 34.6323L137.299 34.1683L137.132 34.4312L137.13 34.4289ZM129.904 32.406C129.984 30.0197 130.928 28.8586 132.784 28.8586C135.132 28.8586 135.744 30.7123 135.813 32.406H129.904Z" fill="#E42B5F"/>
<path d="M145.493 27.686C144.122 27.686 143.015 28.4677 142.298 29.3523C142.213 28.9157 142.046 28.5203 141.724 28.2232C141.262 27.798 140.567 27.6335 139.539 27.7066L139.219 27.7295V28.8632H139.562C139.744 28.8632 139.918 28.9112 140.007 29.4872V37.6837H142.437V32.7695C142.437 29.9603 144.551 28.8243 145.434 28.8243C145.927 28.8243 146.284 28.9455 146.524 29.1923C147.013 29.6929 146.99 30.6849 146.974 31.4803C146.97 31.6289 146.967 31.7706 146.967 31.9032V37.6815H149.418V31.6015C149.418 28.9843 148.133 27.702 145.491 27.686H145.493Z" fill="#E42B5F"/>
<path d="M153.367 24.7512C152.613 24.7512 151.973 25.3912 151.973 26.1478C151.973 26.9044 152.611 27.5261 153.367 27.5261C154.124 27.5261 154.798 26.9089 154.798 26.1478C154.798 25.3866 154.156 24.7512 153.367 24.7512Z" fill="#E42B5F"/>
<path d="M154.592 27.9487H152.181V37.6813H154.592V27.9487Z" fill="#E42B5F"/>
<path d="M166.204 34.5544C166.021 35.0779 165.191 36.7899 162.231 36.7899C160.238 36.7899 159.196 34.7853 159.196 32.8059C159.196 30.0881 160.142 28.8219 162.174 28.8219C163.797 28.8219 164.755 29.7841 165.456 30.4859L165.74 30.7693L166.816 29.5304L166.615 29.3041C165.747 28.3236 163.975 27.6653 162.211 27.6653C159.022 27.6653 156.707 29.8276 156.707 32.8036C156.707 35.7796 159.082 37.9601 162.229 37.9601C164.981 37.9601 166.574 36.3693 167.148 34.8813L167.278 34.5407L166.314 34.239L166.204 34.5521V34.5544Z" fill="#E42B5F"/>
<path d="M172.828 31.7293L172.64 31.6973C171.079 31.4299 170.053 31.1716 170.053 30.079C170.053 29.1579 171.566 28.8607 172.3 28.8607C173.648 28.8607 174.446 29.5784 174.974 30.0539L175.303 30.3487L176.307 29.1144L176.09 28.895C175.53 28.335 174.451 27.6653 172.487 27.6653C170.165 27.6653 168.204 29.1579 168.204 30.9224C168.204 33.4161 170.746 33.8436 172.599 34.1567L172.624 34.1613C173.984 34.3921 174.81 34.5979 174.81 35.5121C174.81 36.6367 173.155 36.8059 172.17 36.8059C170.778 36.8059 169.888 35.727 169.301 35.0116L169.056 34.7167L167.907 35.9007L168.087 36.1361C168.725 36.9704 169.982 37.9624 172.339 37.9624C175.12 37.9624 176.622 36.3419 176.622 34.8173C176.622 32.3899 174.519 32.0241 172.828 31.7293Z" fill="#E42B5F"/>
<path d="M60.8073 46.9111V53.5786H59.8884V46.9111H60.8073Z" fill="#191D2D"/>
<path d="M62.7067 46.9111H63.589V52.3557C63.589 52.7694 63.5227 53.4094 63.9936 53.4094V53.6448C62.8393 53.7203 62.709 53.174 62.709 52.3557V46.9111H62.7067Z" fill="#191D2D"/>
<path d="M65.3741 46.9111H66.2564V52.3557C66.2564 52.7694 66.1901 53.4094 66.661 53.4094V53.6448C65.5067 53.7203 65.3764 53.174 65.3764 52.3557V46.9111H65.3741Z" fill="#191D2D"/>
<path d="M71.5227 51.5672V49.0667H72.405V52.8107C72.4233 53.1307 72.4896 53.4118 72.8073 53.4118V53.6472C71.7467 53.7135 71.5502 53.2609 71.5227 52.5478C71.3262 52.9615 70.7067 53.7226 69.8519 53.7226C68.389 53.7226 68.0416 52.9409 68.0416 51.9352V49.0667H68.9147V51.7844C68.9147 51.8415 68.9056 51.9078 68.9056 51.9718C68.9056 52.6964 68.9056 53.4964 69.8633 53.4964C70.4439 53.4964 71.525 53.0255 71.525 51.5672H71.5227Z" fill="#191D2D"/>
<path d="M75.0016 51.3044V53.5809H74.1284V49.7821C74.1193 49.4621 74.0438 49.1718 73.7261 49.1718V48.9364C74.8804 48.8609 74.965 49.4072 74.965 50.2255V50.3009C75.3033 49.4644 76.0347 49.0026 76.7478 48.9272C77.5547 48.8426 78.3341 49.2564 78.4644 50.1775C78.7844 49.4255 79.3924 48.9935 80.0416 48.8975C80.9696 48.7649 81.909 49.3592 81.909 50.7124V53.5809H81.0359V50.8632C81.0359 49.5284 80.5673 49.0666 80.0599 49.0941C79.3284 49.1421 78.4827 50.1089 78.4827 51.0324V53.5809H77.6096V50.7398C77.6096 49.6587 77.2164 49.1969 76.7456 49.1604C75.9753 49.1032 75.0016 50.0815 75.0016 51.3044Z" fill="#191D2D"/>
<path d="M83.4907 47.9832C83.4907 47.6907 83.7353 47.4575 84.0164 47.4575C84.3158 47.4575 84.5604 47.6929 84.5604 47.9832C84.5604 48.2735 84.3158 48.4998 84.0164 48.4998C83.7353 48.4998 83.4907 48.2644 83.4907 47.9832ZM84.4576 49.0552V53.5787H83.5936V49.0552H84.4576Z" fill="#191D2D"/>
<path d="M87.125 51.2951V53.5808H86.2518V49.6402C86.2153 49.3865 86.1307 49.1694 85.8587 49.1694V48.9339C86.9376 48.8585 87.0884 49.3477 87.0976 50.0905C87.3238 49.6585 87.9136 48.9248 88.8233 48.9248C90.2587 48.9339 90.6153 49.7042 90.6153 50.7122V53.5808H89.733V50.8631C89.733 50.2322 89.8838 49.1511 88.7958 49.1511C88.213 49.1511 87.125 49.8368 87.125 51.2951Z" fill="#191D2D"/>
<path d="M91.9273 52.7054C91.9273 51.3408 93.7765 51.2014 95.3513 50.8997V50.4768C95.3513 49.526 94.6953 49.1214 93.9822 49.1603C93.4016 49.1877 92.7913 49.6585 92.613 50.3168L92.1902 50.1385C92.4256 49.3385 93.1844 48.9637 93.9822 48.934C95.0793 48.8974 96.2336 49.4894 96.2336 50.5431V52.358C96.2336 52.7717 96.1673 53.4117 96.6382 53.4117V53.6471C95.5685 53.7134 95.381 53.2425 95.3536 52.518C95.157 52.8745 94.6976 53.7225 93.3833 53.7225C92.5856 53.7225 91.9296 53.4597 91.9296 52.7077L91.9273 52.7054ZM93.7285 53.4185C94.5445 53.4185 95.2576 52.5523 95.3513 51.83V51.0871C94.085 51.3225 92.7433 51.51 92.7433 52.4608C92.7433 52.7237 92.885 53.4208 93.7285 53.4208V53.4185Z" fill="#191D2D"/>
<path d="M98.2404 47.9741H99.1044V49.0553H100.24V49.3273H99.1044V52.5821C99.1044 52.9958 99.3193 53.3067 99.9113 53.3067C100.051 53.3067 100.192 53.2975 100.24 53.2884V53.5604C100.165 53.5787 99.9501 53.6267 99.621 53.6267C98.7775 53.6267 98.2221 53.1558 98.2221 52.3375V49.3273H97.2187V49.0553H98.2427V47.9741H98.2404Z" fill="#191D2D"/>
<path d="M106.06 52.2163L106.229 52.3009C105.779 53.1672 105.056 53.7203 103.884 53.7203C102.373 53.7203 101.219 52.8358 101.219 51.3043C101.219 49.8849 102.458 48.9158 103.742 48.9158C105.31 48.9158 106.22 49.8758 106.22 51.2861V51.4735H102.128C102.147 52.2826 102.467 53.4301 104.005 53.4301C105.244 53.4301 105.749 52.7055 106.06 52.2163ZM102.128 51.2861H105.431C105.431 49.9878 104.896 49.1695 103.742 49.1695C102.588 49.1695 102.128 49.9878 102.128 51.2861Z" fill="#191D2D"/>
<path d="M112.743 53.5786H111.843V51.1237C110.359 50.3534 109.027 48.4426 109.075 46.9111H110.003C110.124 48.1614 110.547 50.0906 112.01 50.8334H112.611C114.074 50.0906 114.496 48.1637 114.618 46.9111H115.557C115.594 48.4631 114.243 50.3808 112.741 51.142V53.5786H112.743Z" fill="#191D2D"/>
<path d="M117.923 48.9158C119.461 48.9158 120.549 49.9421 120.549 51.3135C120.549 52.6849 119.461 53.7203 117.923 53.7203C116.384 53.7203 115.306 52.6963 115.306 51.3135C115.306 49.9306 116.394 48.9158 117.923 48.9158ZM117.923 49.1512C116.835 49.1512 116.206 50.0723 116.206 51.3135C116.206 52.5546 116.835 53.4849 117.923 53.4849C119.011 53.4849 119.639 52.5638 119.639 51.3135C119.639 50.0632 119.02 49.1512 117.923 49.1512Z" fill="#191D2D"/>
<path d="M125.386 51.5672V49.0667H126.268V52.8107C126.286 53.1307 126.352 53.4118 126.672 53.4118V53.6472C125.612 53.7135 125.415 53.2609 125.388 52.5478C125.191 52.9615 124.572 53.7226 123.717 53.7226C122.254 53.7226 121.907 52.9409 121.907 51.9352V49.0667H122.78V51.7844C122.78 51.8415 122.771 51.9078 122.771 51.9718C122.771 52.6964 122.771 53.4964 123.728 53.4964C124.311 53.4964 125.39 53.0255 125.39 51.5672H125.386Z" fill="#191D2D"/>
<path d="M128.862 51.1717V53.5786H127.989V49.638C127.952 49.3843 127.868 49.1672 127.596 49.1672V48.9317C128.741 48.8563 128.835 49.4026 128.835 50.2209V50.3717C129.022 49.8552 129.454 49.1763 129.904 49.0369C130.055 48.9889 130.222 48.9706 130.4 48.9706C130.512 48.9706 130.636 48.9797 130.757 48.998V49.8346C130.579 49.5626 130.24 49.4392 129.932 49.478C129.397 49.5443 128.862 50.3055 128.862 51.1695V51.1717Z" fill="#191D2D"/>
<path d="M134.428 53.5786V46.9111H136.755C138.471 46.9111 139.251 47.5877 139.269 48.3786C139.287 49.0277 138.791 49.798 137.918 49.8917C138.94 49.9946 139.71 50.7946 139.71 51.7248C139.71 52.9751 138.48 53.7751 137.317 53.7751C136.631 53.7751 135.9 53.718 135.328 53.2494V53.5786H134.428ZM135.319 47.2608V50.2894L136.821 49.9603C137.797 49.7431 138.35 49.3203 138.407 48.5111C138.455 47.814 137.93 47.2608 136.757 47.2608H135.322H135.319ZM135.319 50.4951L135.328 52.9111C135.854 53.3523 136.538 53.4483 137.148 53.4186C138.012 53.3911 138.81 52.8928 138.81 51.9603C138.81 51.0277 137.946 50.118 137.084 50.118C136.999 50.118 136.906 50.1271 136.821 50.1454L135.319 50.4928V50.4951Z" fill="#191D2D"/>
<path d="M145.635 52.2163L145.804 52.3009C145.354 53.1672 144.631 53.7203 143.459 53.7203C141.948 53.7203 140.794 52.8358 140.794 51.3043C140.794 49.8849 142.032 48.9158 143.317 48.9158C144.885 48.9158 145.795 49.8758 145.795 51.2861V51.4735H141.703C141.722 52.2826 142.042 53.4301 143.58 53.4301C144.819 53.4301 145.326 52.7055 145.635 52.2163ZM141.703 51.2861H145.006C145.006 49.9878 144.471 49.1695 143.317 49.1695C142.163 49.1695 141.703 49.9878 141.703 51.2861Z" fill="#191D2D"/>
<path d="M146.688 52.7054C146.688 51.3408 148.538 51.2014 150.112 50.8997V50.4768C150.112 49.526 149.456 49.1214 148.743 49.1603C148.163 49.1877 147.552 49.6585 147.374 50.3168L146.951 50.1385C147.187 49.3385 147.946 48.9637 148.743 48.934C149.84 48.8974 150.995 49.4894 150.995 50.5431V52.358C150.995 52.7717 150.928 53.4117 151.399 53.4117V53.6471C150.33 53.7134 150.142 53.2425 150.115 52.518C149.918 52.8745 149.459 53.7225 148.144 53.7225C147.347 53.7225 146.691 53.4597 146.691 52.7077L146.688 52.7054ZM148.49 53.4185C149.306 53.4185 150.019 52.5523 150.112 51.83V51.0871C148.846 51.3225 147.504 51.51 147.504 52.4608C147.504 52.7237 147.646 53.4208 148.49 53.4208V53.4185Z" fill="#191D2D"/>
<path d="M156.117 51.5672V49.0667H156.999V52.8107C157.018 53.1307 157.084 53.4118 157.404 53.4118V53.6472C156.343 53.7135 156.147 53.2609 156.119 52.5478C155.923 52.9615 155.303 53.7226 154.448 53.7226C152.986 53.7226 152.638 52.9409 152.638 51.9352V49.0667H153.511V51.7844C153.511 51.8415 153.502 51.9078 153.502 51.9718C153.502 52.6964 153.502 53.4964 154.46 53.4964C155.043 53.4964 156.122 53.0255 156.122 51.5672H156.117Z" fill="#191D2D"/>
<path d="M159.086 47.9741H159.95V49.0553H161.086V49.3273H159.95V52.5821C159.95 52.9958 160.165 53.3067 160.757 53.3067C160.899 53.3067 161.038 53.2975 161.086 53.2884V53.5604C161.011 53.5787 160.796 53.6267 160.467 53.6267C159.623 53.6267 159.068 53.1558 159.068 52.3375V49.3273H158.064V49.0553H159.086V47.9741Z" fill="#191D2D"/>
<path d="M165.715 51.5672L166.277 49.0552L167.12 49.0643L165.395 56.3329H164.522L165.395 52.8632C165.066 53.3706 164.645 53.6632 164.044 53.7295C163.171 53.8232 162.234 53.3432 162.234 51.9329V49.7797C162.197 49.526 162.112 49.3089 161.84 49.3089V49.0735C162.986 48.998 163.116 49.5443 163.116 50.3626V51.8209C163.116 52.4517 163.134 53.494 164.053 53.494C164.634 53.494 165.395 52.9957 165.715 51.5649V51.5672Z" fill="#191D2D"/>
</svg>
