<svg width="24" height="24" viewBox="0 0 24 24" fill="none" xmlns="http://www.w3.org/2000/svg">
<path d="M19.0605 3H4.93936C3.86998 3 3 3.86998 3 4.9395V19.0605C3 20.13 3.86998 21 4.93936 21H19.0605C20.13 21 21 20.13 21 19.0605V4.9395C21 3.86998 20.13 3 19.0605 3ZM10.2114 4.05469H13.732V6.634C13.732 7.1218 13.3351 7.51868 12.8473 7.51868H11.0962C10.6083 7.51868 10.2114 7.1218 10.2114 6.634V4.05469ZM19.9453 19.0605C19.9453 19.5484 19.5484 19.9453 19.0605 19.9453H4.93936C4.45157 19.9453 4.05469 19.5484 4.05469 19.0605V4.9395C4.05469 4.45157 4.45157 4.05469 4.93936 4.05469H9.15674V6.634C9.15674 7.70338 10.0267 8.57336 11.0962 8.57336H12.8473C13.9167 8.57336 14.7867 7.70338 14.7867 6.634V4.05469H19.0605C19.5484 4.05469 19.9453 4.45157 19.9453 4.9395V19.0605Z" fill="#191D2D"/>
<path d="M13.6944 12.2715H10.4488L11.1461 11.574C11.3521 11.3681 11.3521 11.0341 11.1461 10.8283C10.9403 10.6223 10.6063 10.6223 10.4004 10.8283L8.80275 12.4259C8.70387 12.5248 8.64825 12.659 8.64825 12.7988C8.64825 12.9387 8.70387 13.0728 8.80275 13.1716L10.4004 14.7692C10.5034 14.8722 10.6383 14.9237 10.7733 14.9237C10.9083 14.9237 11.0433 14.8722 11.1461 14.7692C11.3521 14.5632 11.3521 14.2294 11.1461 14.0235L10.4488 13.3261H13.6944C14.6494 13.3261 15.4265 14.1031 15.4265 15.0581C15.4265 16.0133 14.6494 16.7903 13.6944 16.7903H9.1756C8.88446 16.7903 8.64825 17.0263 8.64825 17.3176C8.64825 17.6088 8.88446 17.845 9.1756 17.845H13.6944C15.231 17.845 16.4812 16.5948 16.4812 15.0581C16.4812 13.5216 15.231 12.2715 13.6944 12.2715Z" fill="#191D2D"/>
</svg>
