<svg width="48" height="48" viewBox="0 0 48 48" fill="none" xmlns="http://www.w3.org/2000/svg">
<rect x="0.5" y="0.5" width="47" height="47" rx="23.5" stroke="#F195AE"/>
<rect x="4" y="4" width="40" height="40" rx="20" fill="#F195AE"/>
<path d="M31.0605 15H16.9394C15.87 15 15 15.87 15 16.9395V31.0605C15 32.13 15.87 33 16.9394 33H31.0605C32.13 33 33 32.13 33 31.0605V16.9395C33 15.87 32.13 15 31.0605 15ZM22.2114 16.0547H25.732V18.634C25.732 19.1218 25.3351 19.5187 24.8473 19.5187H23.0962C22.6083 19.5187 22.2114 19.1218 22.2114 18.634V16.0547ZM31.9453 31.0605C31.9453 31.5484 31.5484 31.9453 31.0605 31.9453H16.9394C16.4516 31.9453 16.0547 31.5484 16.0547 31.0605V16.9395C16.0547 16.4516 16.4516 16.0547 16.9394 16.0547H21.1567V18.634C21.1567 19.7034 22.0267 20.5734 23.0962 20.5734H24.8473C25.9167 20.5734 26.7867 19.7034 26.7867 18.634V16.0547H31.0605C31.5484 16.0547 31.9453 16.4516 31.9453 16.9395V31.0605Z" fill="#191D2D"/>
<path d="M25.6944 24.2715H22.4487L23.1461 23.574C23.3521 23.3681 23.3521 23.0341 23.1461 22.8283C22.9402 22.6223 22.6063 22.6223 22.4004 22.8283L20.8027 24.4259C20.7038 24.5248 20.6482 24.659 20.6482 24.7988C20.6482 24.9387 20.7038 25.0728 20.8027 25.1716L22.4004 26.7692C22.5034 26.8722 22.6383 26.9237 22.7733 26.9237C22.9082 26.9237 23.0432 26.8722 23.1461 26.7692C23.3521 26.5632 23.3521 26.2294 23.1461 26.0235L22.4487 25.3261H25.6944C26.6494 25.3261 27.4265 26.1031 27.4265 27.0581C27.4265 28.0133 26.6494 28.7903 25.6944 28.7903H21.1756C20.8844 28.7903 20.6482 29.0263 20.6482 29.3176C20.6482 29.6088 20.8844 29.845 21.1756 29.845H25.6944C27.231 29.845 28.4812 28.5948 28.4812 27.0581C28.4812 25.5216 27.231 24.2715 25.6944 24.2715Z" fill="#191D2D"/>
</svg>
