<svg width="16" height="16" viewBox="0 0 16 16" fill="none" xmlns="http://www.w3.org/2000/svg">
<path fill-rule="evenodd" clip-rule="evenodd" d="M7.48564 1.78535C7.42844 2.0052 7.21498 2.61438 7.10802 2.86293C6.42617 4.44767 5.2454 5.78207 3.7499 6.65798C3.23601 6.95899 2.51434 7.27032 1.95147 7.43382L1.70148 7.50645V7.99227V8.47806L1.7964 8.50259C2.03825 8.56508 2.6517 8.78488 2.94177 8.91296C3.55137 9.18217 4.21974 9.58833 4.75023 10.0119C5.06609 10.2642 5.72411 10.9221 5.97636 11.238C6.58549 12.0007 7.06013 12.8792 7.35647 13.7923C7.43072 14.0211 7.50022 14.2311 7.51094 14.259L7.5304 14.3097L8.0029 14.3037L8.47538 14.2976L8.58225 13.9515C8.88587 12.968 9.3634 12.0628 10.0019 11.2603C10.2583 10.9381 10.8014 10.3853 11.1411 10.101C11.7393 9.60012 12.4234 9.18076 13.1483 8.87039C13.3796 8.77135 13.9944 8.55717 14.2036 8.50277L14.2985 8.47806V7.99091V7.50375L14.1477 7.46364C13.8758 7.39125 13.3549 7.20419 13.0477 7.06856C11.4509 6.36345 10.11 5.14023 9.25389 3.60769C9.07646 3.29004 8.9582 3.04287 8.8136 2.68751C8.71671 2.44943 8.53439 1.90581 8.50352 1.76301L8.48782 1.69043H7.99908H7.51034L7.48564 1.78535ZM12.4811 2.03955C12.4622 2.17962 12.3457 2.44563 12.2262 2.62144C11.9296 3.05782 11.5052 3.35659 11.0264 3.46614C10.9657 3.48003 10.9743 3.48528 11.1186 3.52224C11.4263 3.60107 11.7235 3.78512 11.9883 4.06092C12.2414 4.32454 12.3921 4.57957 12.4666 4.8701C12.5033 5.01351 12.5088 5.02264 12.5221 4.96227C12.5641 4.77235 12.6389 4.57738 12.7296 4.42143C12.8622 4.19354 13.2208 3.83218 13.4409 3.70481C13.6125 3.60547 13.8996 3.49984 14.0009 3.49877C14.084 3.49787 14.0301 3.46647 13.9077 3.44441C13.5839 3.38612 13.124 3.06523 12.8544 2.70952C12.7349 2.55185 12.567 2.21207 12.544 2.08126C12.5184 1.93543 12.4971 1.92131 12.4811 2.03955ZM8.12284 3.60532C8.18426 3.73673 8.30862 3.9752 8.39921 4.13527C9.29561 5.71908 10.673 7.02519 12.2704 7.80594C12.4632 7.90017 12.6215 7.98233 12.6222 7.98852C12.6228 7.9947 12.4804 8.07008 12.3056 8.15602C10.4838 9.05203 8.95574 10.5992 8.10745 12.4067L7.99917 12.6374L7.84336 12.3221C7.63519 11.9009 7.52236 11.7053 7.24998 11.2938C6.56103 10.2529 5.73539 9.4273 4.69439 8.73841C4.27878 8.46337 4.06963 8.34297 3.66007 8.14295L3.35057 7.99182L3.60513 7.87082C5.41479 7.01069 6.93427 5.50489 7.83203 3.68199C7.91778 3.50788 7.99316 3.36566 7.99955 3.36593C8.00594 3.36619 8.06142 3.47393 8.12284 3.60532Z" fill="#E42B5F"/>
</svg>
