<svg width="97" height="16" viewBox="0 0 97 16" fill="none" xmlns="http://www.w3.org/2000/svg">
<path d="M12.6123 9.54675C12.4397 9.71408 12.3603 9.95608 12.3997 10.1934L12.9923 13.4734C13.0423 13.7514 12.925 14.0327 12.6923 14.1934C12.4643 14.3601 12.161 14.3801 11.9123 14.2467L8.95967 12.7067C8.85701 12.6521 8.74301 12.6227 8.62634 12.6194H8.44567C8.38301 12.6287 8.32167 12.6487 8.26567 12.6794L5.31234 14.2267C5.16634 14.3001 5.00101 14.3261 4.83901 14.3001C4.44434 14.2254 4.18101 13.8494 4.24567 13.4527L4.83901 10.1727C4.87834 9.93341 4.79901 9.69008 4.62634 9.52008L2.21901 7.18675C2.01767 6.99141 1.94767 6.69808 2.03967 6.43341C2.12901 6.16941 2.35701 5.97675 2.63234 5.93341L5.94567 5.45275C6.19767 5.42675 6.41901 5.27341 6.53234 5.04675L7.99234 2.05341C8.02701 1.98675 8.07167 1.92541 8.12567 1.87341L8.18567 1.82675C8.21701 1.79208 8.25301 1.76341 8.29301 1.74008L8.36567 1.71341L8.47901 1.66675H8.75967C9.01034 1.69275 9.23101 1.84275 9.34634 2.06675L10.8257 5.04675C10.9323 5.26475 11.1397 5.41608 11.379 5.45275L14.6923 5.93341C14.9723 5.97341 15.2063 6.16675 15.299 6.43341C15.3863 6.70075 15.311 6.99408 15.1057 7.18675L12.6123 9.54675Z" fill="#FF8A00"/>
<path d="M32.6123 9.54675C32.4397 9.71408 32.3603 9.95608 32.3997 10.1934L32.9923 13.4734C33.0423 13.7514 32.925 14.0327 32.6923 14.1934C32.4643 14.3601 32.161 14.3801 31.9123 14.2467L28.9597 12.7067C28.857 12.6521 28.743 12.6227 28.6263 12.6194H28.4457C28.383 12.6287 28.3217 12.6487 28.2657 12.6794L25.3123 14.2267C25.1663 14.3001 25.001 14.3261 24.839 14.3001C24.4443 14.2254 24.181 13.8494 24.2457 13.4527L24.839 10.1727C24.8783 9.93341 24.799 9.69008 24.6263 9.52008L22.219 7.18675C22.0177 6.99141 21.9477 6.69808 22.0397 6.43341C22.129 6.16941 22.357 5.97675 22.6323 5.93341L25.9457 5.45275C26.1977 5.42675 26.419 5.27341 26.5323 5.04675L27.9923 2.05341C28.027 1.98675 28.0717 1.92541 28.1257 1.87341L28.1857 1.82675C28.217 1.79208 28.253 1.76341 28.293 1.74008L28.3657 1.71341L28.479 1.66675H28.7597C29.0103 1.69275 29.231 1.84275 29.3463 2.06675L30.8257 5.04675C30.9323 5.26475 31.1397 5.41608 31.379 5.45275L34.6923 5.93341C34.9723 5.97341 35.2063 6.16675 35.299 6.43341C35.3863 6.70075 35.311 6.99408 35.1057 7.18675L32.6123 9.54675Z" fill="#FF8A00"/>
<path d="M52.6123 9.54675C52.4397 9.71408 52.3603 9.95608 52.3997 10.1934L52.9923 13.4734C53.0423 13.7514 52.925 14.0327 52.6923 14.1934C52.4643 14.3601 52.161 14.3801 51.9123 14.2467L48.9597 12.7067C48.857 12.6521 48.743 12.6227 48.6263 12.6194H48.4457C48.383 12.6287 48.3217 12.6487 48.2657 12.6794L45.3123 14.2267C45.1663 14.3001 45.001 14.3261 44.839 14.3001C44.4443 14.2254 44.181 13.8494 44.2457 13.4527L44.839 10.1727C44.8783 9.93341 44.799 9.69008 44.6263 9.52008L42.219 7.18675C42.0177 6.99141 41.9477 6.69808 42.0397 6.43341C42.129 6.16941 42.357 5.97675 42.6323 5.93341L45.9457 5.45275C46.1977 5.42675 46.419 5.27341 46.5323 5.04675L47.9923 2.05341C48.027 1.98675 48.0717 1.92541 48.1257 1.87341L48.1857 1.82675C48.217 1.79208 48.253 1.76341 48.293 1.74008L48.3657 1.71341L48.479 1.66675H48.7597C49.0103 1.69275 49.231 1.84275 49.3463 2.06675L50.8257 5.04675C50.9323 5.26475 51.1397 5.41608 51.379 5.45275L54.6923 5.93341C54.9723 5.97341 55.2063 6.16675 55.299 6.43341C55.3863 6.70075 55.311 6.99408 55.1057 7.18675L52.6123 9.54675Z" fill="#FF8A00"/>
<path d="M72.6123 9.54675C72.4397 9.71408 72.3603 9.95608 72.3997 10.1934L72.9923 13.4734C73.0423 13.7514 72.925 14.0327 72.6923 14.1934C72.4643 14.3601 72.161 14.3801 71.9123 14.2467L68.9597 12.7067C68.857 12.6521 68.743 12.6227 68.6263 12.6194H68.4457C68.383 12.6287 68.3217 12.6487 68.2657 12.6794L65.3123 14.2267C65.1663 14.3001 65.001 14.3261 64.839 14.3001C64.4443 14.2254 64.181 13.8494 64.2457 13.4527L64.839 10.1727C64.8783 9.93341 64.799 9.69008 64.6263 9.52008L62.219 7.18675C62.0177 6.99141 61.9477 6.69808 62.0397 6.43341C62.129 6.16941 62.357 5.97675 62.6323 5.93341L65.9457 5.45275C66.1977 5.42675 66.419 5.27341 66.5323 5.04675L67.9923 2.05341C68.027 1.98675 68.0717 1.92541 68.1257 1.87341L68.1857 1.82675C68.217 1.79208 68.253 1.76341 68.293 1.74008L68.3657 1.71341L68.479 1.66675H68.7597C69.0103 1.69275 69.231 1.84275 69.3463 2.06675L70.8257 5.04675C70.9323 5.26475 71.1397 5.41608 71.379 5.45275L74.6923 5.93341C74.9723 5.97341 75.2063 6.16675 75.299 6.43341C75.3863 6.70075 75.311 6.99408 75.1057 7.18675L72.6123 9.54675Z" fill="#FF8A00"/>
<path d="M92.6123 9.54675C92.4397 9.71408 92.3603 9.95608 92.3997 10.1934L92.9923 13.4734C93.0423 13.7514 92.925 14.0327 92.6923 14.1934C92.4643 14.3601 92.161 14.3801 91.9123 14.2467L88.9597 12.7067C88.857 12.6521 88.743 12.6227 88.6263 12.6194H88.4457C88.383 12.6287 88.3217 12.6487 88.2657 12.6794L85.3123 14.2267C85.1663 14.3001 85.001 14.3261 84.839 14.3001C84.4443 14.2254 84.181 13.8494 84.2457 13.4527L84.839 10.1727C84.8783 9.93341 84.799 9.69008 84.6263 9.52008L82.219 7.18675C82.0177 6.99141 81.9477 6.69808 82.0397 6.43341C82.129 6.16941 82.357 5.97675 82.6323 5.93341L85.9457 5.45275C86.1977 5.42675 86.419 5.27341 86.5323 5.04675L87.9923 2.05341C88.027 1.98675 88.0717 1.92541 88.1257 1.87341L88.1857 1.82675C88.217 1.79208 88.253 1.76341 88.293 1.74008L88.3657 1.71341L88.479 1.66675H88.7597C89.0103 1.69275 89.231 1.84275 89.3463 2.06675L90.8257 5.04675C90.9323 5.26475 91.1397 5.41608 91.379 5.45275L94.6923 5.93341C94.9723 5.97341 95.2063 6.16675 95.299 6.43341C95.3863 6.70075 95.311 6.99408 95.1057 7.18675L92.6123 9.54675Z" fill="#FF8A00"/>
</svg>
