<svg width="17" height="16" viewBox="0 0 17 16" fill="none" xmlns="http://www.w3.org/2000/svg">
<path d="M12.6123 9.54675C12.4397 9.71408 12.3603 9.95608 12.3997 10.1934L12.9923 13.4734C13.0423 13.7514 12.925 14.0327 12.6923 14.1934C12.4643 14.3601 12.161 14.3801 11.9123 14.2467L8.95967 12.7067C8.85701 12.6521 8.74301 12.6227 8.62634 12.6194H8.44567C8.38301 12.6287 8.32167 12.6487 8.26567 12.6794L5.31234 14.2267C5.16634 14.3001 5.00101 14.3261 4.83901 14.3001C4.44434 14.2254 4.18101 13.8494 4.24567 13.4527L4.83901 10.1727C4.87834 9.93341 4.79901 9.69008 4.62634 9.52008L2.21901 7.18675C2.01767 6.99141 1.94767 6.69808 2.03967 6.43341C2.12901 6.16941 2.35701 5.97675 2.63234 5.93341L5.94567 5.45275C6.19767 5.42675 6.41901 5.27341 6.53234 5.04675L7.99234 2.05341C8.02701 1.98675 8.07167 1.92541 8.12567 1.87341L8.18567 1.82675C8.21701 1.79208 8.25301 1.76341 8.29301 1.74008L8.36567 1.71341L8.47901 1.66675H8.75967C9.01034 1.69275 9.23101 1.84275 9.34634 2.06675L10.8257 5.04675C10.9323 5.26475 11.1397 5.41608 11.379 5.45275L14.6923 5.93341C14.9723 5.97341 15.2063 6.16675 15.299 6.43341C15.3863 6.70075 15.311 6.99408 15.1057 7.18675L12.6123 9.54675Z" fill="#FF8A00"/>
</svg>
