<svg width="48" height="48" viewBox="0 0 48 48" fill="none" xmlns="http://www.w3.org/2000/svg">
<rect x="0.5" y="0.5" width="47" height="47" rx="23.5" stroke="#F195AE"/>
<rect x="4" y="4" width="40" height="40" rx="20" fill="#F195AE"/>
<path d="M32.7026 27.5916C32.5085 27.5916 32.3511 27.749 32.3511 27.9431C32.3511 28.1374 32.5085 28.2947 32.7026 28.2947H32.7065C32.9006 28.2947 33.056 28.1374 33.056 27.9431C33.056 27.749 32.8967 27.5916 32.7026 27.5916Z" fill="#191D2D"/>
<path d="M22.1873 27.5916C21.9932 27.5916 21.8357 27.749 21.8357 27.9431C21.8357 28.1374 21.9932 28.2947 22.1873 28.2947H22.1911C22.3852 28.2947 22.5408 28.1374 22.5408 27.9431C22.5408 27.749 22.3815 27.5916 22.1873 27.5916Z" fill="#191D2D"/>
<path d="M35.8716 26.3323C35.7689 26.1985 35.6151 26.1144 35.4415 26.0943L35.928 24.2788C36.0379 23.8685 35.9696 23.462 35.7405 23.1633C35.53 22.8889 35.2115 22.7301 34.8382 22.7114L34.9541 20.204C34.9698 19.8616 34.8578 19.5466 34.6386 19.3172C34.415 19.0832 34.0957 18.9541 33.7396 18.9541H31.2532C31.2294 18.806 31.1719 18.6683 31.0823 18.5515C30.9124 18.3301 30.6411 18.2032 30.338 18.2032H21.325C20.7524 18.2032 20.185 18.6474 20.033 19.2148L19.6306 20.717C19.5802 20.9045 19.6915 21.0974 19.8792 21.1477C20.0665 21.1977 20.2593 21.0865 20.3097 20.899L20.7122 19.3969C20.7823 19.1356 21.0687 18.9063 21.325 18.9063H30.338C30.3973 18.9063 30.4779 18.9189 30.5244 18.9796C30.5654 19.0328 30.574 19.1187 30.5484 19.2148L28.3035 27.5916H24.0945C24.1016 27.2396 24.0016 26.91 23.8011 26.6486C23.5245 26.288 23.0949 26.0894 22.5917 26.0894C21.6874 26.0894 20.7896 26.731 20.4359 27.5916H18.8093C18.7498 27.5916 18.6694 27.5789 18.6229 27.5183C18.5819 27.465 18.5733 27.3791 18.5989 27.283L19.8373 22.6616H20.9888C21.1829 22.6616 21.3404 22.5042 21.3404 22.3101C21.3404 22.1158 21.1829 21.9585 20.9888 21.9585H16.8578C16.6637 21.9585 16.5062 22.1158 16.5062 22.3101C16.5062 22.5042 16.6637 22.6616 16.8578 22.6616H19.1094L17.9198 27.101C17.837 27.4101 17.89 27.7183 18.0652 27.9464C18.2349 28.1678 18.5063 28.2947 18.8093 28.2947H20.2839C20.2765 28.6466 20.3765 28.9764 20.5772 29.2379C20.8539 29.5984 21.2834 29.7969 21.7866 29.7969C22.691 29.7969 23.5887 29.1553 23.9425 28.2949H28.5721H28.5736H28.5747H30.7991C30.7917 28.6466 30.8919 28.9764 31.0924 29.2379C31.3691 29.5984 31.7986 29.7971 32.3018 29.7971C33.2062 29.7971 34.1039 29.1555 34.4577 28.2949H34.9576C35.3254 28.2949 35.6763 28.0213 35.7733 27.6588L35.9745 26.9077C36.0302 26.6998 35.9929 26.4902 35.8716 26.3323ZM23.3518 27.8521C23.1714 28.5252 22.4548 29.0937 21.7866 29.0937C21.507 29.0937 21.2756 28.9929 21.1351 28.8098C20.9839 28.6127 20.9454 28.3373 21.0265 28.0341C21.2069 27.3612 21.9238 26.7925 22.5917 26.7925C22.8713 26.7925 23.1028 26.8934 23.2434 27.0767C23.3945 27.2737 23.4329 27.5491 23.3518 27.8521ZM34.1349 22.7096L31.8419 22.7094L32.2264 21.2744C32.2418 21.2173 32.3188 21.1594 32.363 21.1594H34.2063L34.1349 22.7096ZM29.7488 24.9149H33.2344C33.4286 24.9149 33.5859 24.7574 33.5859 24.5634C33.5859 24.3691 33.4286 24.2118 33.2344 24.2118H29.9372L31.1576 19.6572H33.7394C33.904 19.6572 34.0391 19.7076 34.1301 19.803C34.2165 19.8932 34.2585 20.0209 34.2517 20.1719L34.2385 20.4563H32.363C31.9951 20.4563 31.6443 20.7299 31.5472 21.0924L31.1448 22.5946C31.0891 22.8022 31.1266 23.0119 31.2477 23.1697C31.3661 23.3241 31.5525 23.4127 31.7593 23.4127H34.7635C34.9453 23.4127 35.0942 23.4763 35.1824 23.5914C35.2789 23.717 35.3024 23.8965 35.2487 24.0968L35.218 24.2118H34.7366C34.5425 24.2118 34.385 24.3693 34.385 24.5634C34.385 24.7574 34.5425 24.9149 34.7366 24.9149H35.0295L34.7148 26.0895H33.1069C32.2024 26.0895 31.3048 26.7311 30.951 27.5917H29.0316L29.7488 24.9149ZM33.867 27.8521C33.6866 28.5252 32.97 29.0937 32.3018 29.0937C32.0222 29.0937 31.7908 28.9929 31.6503 28.8098C31.4991 28.6127 31.4606 28.3373 31.5417 28.0341C31.7221 27.3612 32.439 26.7925 33.1069 26.7925C33.3865 26.7925 33.618 26.8934 33.7586 27.0767C33.9097 27.2737 33.9481 27.5491 33.867 27.8521ZM35.0942 27.4766C35.079 27.5337 35.0019 27.5916 34.9576 27.5916H34.6097C34.6155 27.3015 34.5489 27.0267 34.4128 26.7927H35.2775L35.0942 27.4766Z" fill="#191D2D"/>
<path d="M19.0873 18.5546C19.0873 18.3605 18.93 18.203 18.7357 18.203H12.3516C12.1575 18.203 12 18.3605 12 18.5546C12 18.7487 12.1575 18.9061 12.3516 18.9061H18.7357C18.93 18.9061 19.0873 18.7487 19.0873 18.5546Z" fill="#191D2D"/>
<path d="M18.7119 20.4323C18.7119 20.2382 18.5544 20.0807 18.3604 20.0807H14.6049C14.4106 20.0807 14.2533 20.2382 14.2533 20.4323C14.2533 20.6264 14.4106 20.7839 14.6049 20.7839H18.3602C18.5544 20.7839 18.7119 20.6264 18.7119 20.4323Z" fill="#191D2D"/>
</svg>
