<svg width="24" height="24" viewBox="0 0 24 24" fill="none" xmlns="http://www.w3.org/2000/svg">
<path d="M20.7026 15.5916C20.5085 15.5916 20.3511 15.749 20.3511 15.9431C20.3511 16.1374 20.5085 16.2947 20.7026 16.2947H20.7065C20.9006 16.2947 21.056 16.1374 21.056 15.9431C21.056 15.749 20.8967 15.5916 20.7026 15.5916Z" fill="#191D2D"/>
<path d="M10.1873 15.5916C9.99316 15.5916 9.83569 15.749 9.83569 15.9431C9.83569 16.1374 9.99316 16.2947 10.1873 16.2947H10.1911C10.3852 16.2947 10.5408 16.1374 10.5408 15.9431C10.5408 15.749 10.3815 15.5916 10.1873 15.5916Z" fill="#191D2D"/>
<path d="M23.8716 14.3323C23.7689 14.1985 23.6151 14.1144 23.4415 14.0943L23.928 12.2788C24.0379 11.8685 23.9696 11.462 23.7405 11.1633C23.53 10.8889 23.2115 10.7301 22.8382 10.7114L22.9541 8.20398C22.9698 7.86157 22.8578 7.54663 22.6386 7.3172C22.415 7.08319 22.0957 6.9541 21.7396 6.9541H19.2532C19.2294 6.80597 19.1719 6.66827 19.0823 6.55145C18.9124 6.33008 18.6411 6.20319 18.338 6.20319H9.32501C8.75244 6.20319 8.185 6.6474 8.03302 7.21484L7.63055 8.71704C7.5802 8.90454 7.69153 9.09735 7.87921 9.1477C8.06653 9.19769 8.25934 9.08655 8.30969 8.89905L8.71216 7.39685C8.78229 7.13556 9.06866 6.90631 9.32501 6.90631H18.338C18.3973 6.90631 18.4779 6.91895 18.5244 6.97955C18.5654 7.03284 18.574 7.11871 18.5484 7.21484L16.3035 15.5916H12.0945C12.1016 15.2396 12.0016 14.91 11.8011 14.6486C11.5245 14.288 11.0949 14.0894 10.5917 14.0894C9.68738 14.0894 8.78961 14.731 8.43585 15.5916H6.80933C6.74982 15.5916 6.66943 15.5789 6.62292 15.5183C6.58191 15.465 6.5733 15.3791 6.59894 15.283L7.83728 10.6616H8.98883C9.18292 10.6616 9.34039 10.5042 9.34039 10.3101C9.34039 10.1158 9.18292 9.9585 8.98883 9.9585H4.85779C4.6637 9.9585 4.50623 10.1158 4.50623 10.3101C4.50623 10.5042 4.6637 10.6616 4.85779 10.6616H7.10944L5.9198 15.101C5.83704 15.4101 5.88995 15.7183 6.06519 15.9464C6.23492 16.1678 6.50629 16.2947 6.80933 16.2947H8.28387C8.27655 16.6466 8.37653 16.9764 8.57721 17.2379C8.85388 17.5984 9.28345 17.7969 9.78662 17.7969C10.691 17.7969 11.5887 17.1553 11.9425 16.2949H16.5721H16.5736H16.5747H18.7991C18.7917 16.6466 18.8919 16.9764 19.0924 17.2379C19.3691 17.5984 19.7986 17.7971 20.3018 17.7971C21.2062 17.7971 22.1039 17.1555 22.4577 16.2949H22.9576C23.3254 16.2949 23.6763 16.0213 23.7733 15.6588L23.9745 14.9077C24.0302 14.6998 23.9929 14.4902 23.8716 14.3323ZM11.3518 15.8521C11.1714 16.5252 10.4548 17.0937 9.78662 17.0937C9.50702 17.0937 9.27557 16.9929 9.13513 16.8098C8.98389 16.6127 8.94543 16.3373 9.02655 16.0341C9.20691 15.3612 9.92377 14.7925 10.5917 14.7925C10.8713 14.7925 11.1028 14.8934 11.2434 15.0767C11.3945 15.2737 11.4329 15.5491 11.3518 15.8521ZM22.1349 10.7096L19.8419 10.7094L20.2264 9.27441C20.2418 9.21728 20.3188 9.15942 20.363 9.15942H22.2063L22.1349 10.7096ZM17.7488 12.9149H21.2344C21.4286 12.9149 21.5859 12.7574 21.5859 12.5634C21.5859 12.3691 21.4286 12.2118 21.2344 12.2118H17.9372L19.1576 7.65723H21.7394C21.904 7.65723 22.0391 7.70758 22.1301 7.80298C22.2165 7.89325 22.2585 8.02087 22.2517 8.17194L22.2385 8.4563H20.363C19.9951 8.4563 19.6443 8.72986 19.5472 9.09241L19.1448 10.5946C19.0891 10.8022 19.1266 11.0119 19.2477 11.1697C19.3661 11.3241 19.5525 11.4127 19.7593 11.4127H22.7635C22.9453 11.4127 23.0942 11.4763 23.1824 11.5914C23.2789 11.717 23.3024 11.8965 23.2487 12.0968L23.218 12.2118H22.7366C22.5425 12.2118 22.385 12.3693 22.385 12.5634C22.385 12.7574 22.5425 12.9149 22.7366 12.9149H23.0295L22.7148 14.0895H21.1069C20.2024 14.0895 19.3048 14.7311 18.951 15.5917H17.0316L17.7488 12.9149ZM21.867 15.8521C21.6866 16.5252 20.97 17.0937 20.3018 17.0937C20.0222 17.0937 19.7908 16.9929 19.6503 16.8098C19.4991 16.6127 19.4606 16.3373 19.5417 16.0341C19.7221 15.3612 20.439 14.7925 21.1069 14.7925C21.3865 14.7925 21.618 14.8934 21.7586 15.0767C21.9097 15.2737 21.9481 15.5491 21.867 15.8521ZM23.0942 15.4766C23.079 15.5337 23.0019 15.5916 22.9576 15.5916H22.6097C22.6155 15.3015 22.5489 15.0267 22.4128 14.7927H23.2775L23.0942 15.4766Z" fill="#191D2D"/>
<path d="M7.08728 6.55457C7.08728 6.36047 6.92999 6.203 6.73572 6.203H0.351562C0.157471 6.203 0 6.36047 0 6.55457C0 6.74866 0.157471 6.90613 0.351562 6.90613H6.73572C6.92999 6.90613 7.08728 6.74866 7.08728 6.55457Z" fill="#191D2D"/>
<path d="M6.71191 8.43231C6.71191 8.23822 6.55444 8.08075 6.36035 8.08075H2.60486C2.41058 8.08075 2.2533 8.23822 2.2533 8.43231C2.2533 8.6264 2.41058 8.78387 2.60486 8.78387H6.36017C6.55444 8.78387 6.71191 8.6264 6.71191 8.43231Z" fill="#191D2D"/>
</svg>
