<svg width="25" height="20" viewBox="0 0 25 20" fill="none" xmlns="http://www.w3.org/2000/svg">
<path d="M24.3782 2.36764C23.4963 2.76923 22.5469 3.04081 21.5509 3.16215C22.568 2.5381 23.3484 1.54857 23.7161 0.369808C22.7638 0.947635 21.7115 1.368 20.5874 1.59335C19.6914 0.612495 18.4109 0 16.9938 0C14.2764 0 12.0718 2.26074 12.0718 5.04875C12.0718 5.44457 12.114 5.82882 12.1986 6.19863C8.10629 5.98772 4.4789 3.97978 2.04889 0.921633C1.62487 1.66992 1.38258 2.5381 1.38258 3.46262C1.38258 5.21343 2.25174 6.75912 3.5731 7.66486C2.76733 7.6403 2.00663 7.41062 1.34172 7.03503V7.09715C1.34172 9.54424 3.03921 11.5854 5.29312 12.0477C4.88037 12.1661 4.44509 12.2254 3.99571 12.2254C3.67875 12.2254 3.36884 12.195 3.06879 12.1358C3.69566 14.1408 5.51288 15.6013 7.66819 15.6403C5.98339 16.9953 3.85907 17.8028 1.55303 17.8028C1.15578 17.8028 0.762748 17.7797 0.378174 17.7335C2.55743 19.1636 5.14662 20 7.92598 20C16.9839 20 21.9355 12.3077 21.9355 5.63525C21.9355 5.41567 21.9313 5.1961 21.9228 4.98086C22.885 4.26869 23.7203 3.38028 24.3782 2.36764Z" fill="#4E515D"/>
</svg>
