<svg width="25" height="18" viewBox="0 0 25 18" fill="none" xmlns="http://www.w3.org/2000/svg">
<path fill-rule="evenodd" clip-rule="evenodd" d="M23.1842 1.76818C23.9034 2.5016 24.1382 4.16708 24.1382 4.16708C24.1382 4.16708 24.3782 6.12336 24.3782 8.07889V9.9128C24.3782 11.8691 24.1382 13.8246 24.1382 13.8246C24.1382 13.8246 23.9034 15.4901 23.1842 16.2235C22.3619 17.0911 21.4501 17.1808 20.9347 17.2314C20.878 17.237 20.8261 17.2421 20.7797 17.2477C17.4212 17.4924 12.3782 17.5 12.3782 17.5C12.3782 17.5 6.13817 17.4426 4.21817 17.2568C4.1272 17.2397 4.01693 17.2264 3.89205 17.2113C3.28387 17.1378 2.32931 17.0225 1.57142 16.2235C0.852174 15.4901 0.618174 13.8246 0.618174 13.8246C0.618174 13.8246 0.378174 11.8691 0.378174 9.9128V8.07889C0.378174 6.12336 0.618174 4.16708 0.618174 4.16708C0.618174 4.16708 0.852174 2.5016 1.57142 1.76818C2.39557 0.899349 3.30823 0.810675 3.82365 0.760597C3.87954 0.755167 3.93075 0.750191 3.97667 0.744724C7.33517 0.5 12.3729 0.5 12.3729 0.5H12.3834C12.3834 0.5 17.4212 0.5 20.7797 0.744724C20.8256 0.750199 20.8768 0.755182 20.9328 0.760621C21.4478 0.810704 22.3608 0.89949 23.1842 1.76818ZM9.89942 5.34387L9.90017 12.135L16.3839 8.75112L9.89942 5.34387Z" fill="#4E515D"/>
</svg>
