<?xml version="1.0" standalone="no"?>
<!DOCTYPE svg PUBLIC "-//W3C//DTD SVG 20010904//EN"
 "http://www.w3.org/TR/2001/REC-SVG-20010904/DTD/svg10.dtd">
<svg version="1.0" xmlns="http://www.w3.org/2000/svg"
 width="800.000000pt" height="800.000000pt" viewBox="0 0 800.000000 800.000000"
 preserveAspectRatio="xMidYMid meet">
<metadata>
Created by potrace 1.14, written by Peter Selinger 2001-2017
</metadata>
<g transform="translate(0.000000,800.000000) scale(0.100000,-0.100000)"
fill="#000000" stroke="none">
<path d="M3132 7814 c-95 -108 -141 -178 -181 -274 -36 -87 -51 -128 -57 -155
-17 -86 -21 -178 -9 -245 9 -54 38 -130 49 -130 5 0 6 -3 3 -6 -4 -4 3 -20 15
-36 20 -29 16 -43 -14 -49 -14 -3 -28 -6 -33 -9 -3 -1 -8 -3 -12 -5 -12 -3
-63 -23 -108 -42 -52 -23 -244 -136 -270 -160 -13 -12 -37 -19 -71 -20 -56 -1
-104 -21 -145 -60 -17 -15 -52 -30 -93 -40 -57 -12 -73 -22 -116 -64 -28 -27
-50 -56 -50 -64 0 -8 -4 -15 -10 -15 -5 0 -10 -8 -10 -17 0 -10 -7 -27 -15
-37 -8 -10 -11 -24 -8 -30 4 -7 1 -6 -8 1 -8 7 -30 49 -49 93 l-33 82 47 46
c26 25 54 59 62 75 37 70 31 244 -8 255 -15 3 -17 11 -13 44 10 80 -87 196
-110 131 -3 -10 -12 -26 -20 -37 -13 -17 -15 -17 -47 7 -48 37 -132 77 -160
77 -50 0 -75 -58 -73 -167 l1 -72 -31 -3 c-28 -3 -30 -6 -30 -43 0 -56 13 -85
58 -126 22 -20 37 -42 33 -48 -11 -18 21 -66 63 -94 44 -29 104 -46 166 -47
l40 0 44 -108 c57 -140 93 -187 185 -248 98 -64 98 -71 6 -49 -48 12 -123 14
-162 6 -37 -9 -40 -7 -88 40 -46 45 -112 76 -157 72 -7 0 -22 -1 -33 -2 -11 0
-30 -11 -42 -23 -12 -12 -32 -23 -44 -24 -34 -4 -80 -31 -119 -71 -34 -35 -35
-37 -19 -60 14 -22 14 -27 -3 -51 -54 -81 -71 -133 -50 -150 25 -21 101 -29
170 -16 19 3 29 0 34 -11 4 -13 14 -15 45 -10 54 9 85 27 136 76 l42 42 0 -54
c0 -30 7 -81 14 -113 l14 -59 -49 -61 c-27 -34 -55 -68 -63 -76 -16 -17 -131
-192 -131 -200 0 -3 -6 -14 -12 -25 -13 -22 1 -21 -290 -12 -95 3 -177 8 -182
11 -4 3 -26 8 -47 10 -77 10 -190 48 -273 92 -46 24 -86 42 -88 40 -4 -4 28
-77 37 -86 11 -11 50 -69 50 -75 0 -7 59 -92 119 -170 58 -77 302 -321 362
-362 63 -43 84 -76 67 -106 -7 -12 -13 -24 -13 -27 -1 -3 -18 -57 -39 -120
-21 -63 -40 -122 -42 -130 -2 -8 -15 -58 -28 -110 -14 -52 -28 -111 -31 -131
-3 -20 -10 -51 -15 -69 -5 -19 -8 -36 -5 -38 3 -3 0 -11 -5 -18 -6 -6 -10 -16
-8 -20 2 -8 -7 -71 -17 -126 -3 -11 -7 -41 -10 -67 -3 -25 -8 -64 -10 -86 -33
-248 -38 -628 -11 -870 3 -22 8 -67 11 -100 10 -99 22 -176 30 -205 2 -8 6
-31 9 -50 3 -19 13 -66 22 -105 9 -38 17 -74 18 -80 15 -63 80 -269 101 -320
7 -16 23 -57 35 -90 30 -78 128 -277 166 -335 16 -25 34 -57 41 -72 7 -16 19
-28 28 -28 30 0 259 185 390 315 48 48 187 211 210 247 6 9 31 47 57 86 42 61
172 298 171 312 -1 6 4 19 29 85 24 61 66 235 74 301 3 27 7 63 9 79 2 17 5
76 5 132 2 116 -10 152 -80 252 -30 42 -40 66 -38 89 1 18 5 32 9 32 11 0 85
-103 135 -187 77 -130 175 -349 189 -423 1 -3 4 -18 8 -35 26 -108 31 -165 31
-320 -1 -124 -8 -260 -14 -260 -1 0 -3 -9 -5 -20 -1 -11 -5 -33 -9 -50 -4 -16
-9 -48 -12 -70 l-5 -40 15 30 c18 37 51 128 49 135 0 3 3 13 9 23 5 10 11 26
13 35 2 9 13 56 24 104 11 48 23 104 26 125 2 21 7 49 10 63 11 51 19 199 18
315 -2 172 -9 235 -48 440 -6 34 -42 167 -56 205 -15 43 -69 267 -74 307 -3
21 -7 70 -10 109 l-6 72 38 -8 c21 -5 50 -11 66 -14 15 -2 35 -7 45 -10 9 -2
44 -7 77 -11 33 -3 63 -9 66 -13 4 -4 9 -32 13 -62 7 -72 15 -118 26 -155 5
-16 11 -41 14 -55 6 -40 96 -304 107 -315 5 -5 9 -17 9 -27 0 -10 5 -18 10
-18 6 0 10 -6 10 -13 0 -35 145 -269 263 -422 73 -96 135 -174 152 -192 26
-27 117 -157 142 -203 33 -58 52 -131 56 -210 4 -82 -1 -103 -72 -255 -22 -47
-40 -88 -40 -91 0 -3 -6 -15 -14 -27 -52 -80 -151 -389 -165 -517 -14 -124 -6
-309 17 -404 76 -314 297 -579 611 -733 212 -103 379 -144 655 -158 l100 -5
-70 25 c-38 13 -82 32 -97 40 -16 9 -28 14 -28 11 0 -5 -32 13 -122 69 -152
95 -279 227 -360 375 -33 61 -74 167 -83 215 -4 22 -9 51 -12 65 -15 74 -5
256 21 363 14 60 26 81 33 60 2 -6 13 -21 24 -34 10 -12 33 -41 51 -63 112
-146 374 -302 578 -345 99 -21 120 -23 240 -25 131 -2 220 9 347 44 112 31
238 89 346 159 94 62 113 78 212 176 111 110 233 281 221 310 -2 7 -17 15 -33
19 -24 6 -128 43 -198 71 -11 4 -24 9 -30 11 -23 5 -334 125 -380 145 -27 13
-54 24 -60 25 -21 4 -64 31 -59 37 3 3 14 2 23 -3 17 -9 322 -107 356 -115 11
-2 63 -16 115 -30 319 -88 402 -126 501 -226 38 -38 69 -74 69 -81 0 -6 6 -19
13 -27 45 -53 69 -215 47 -323 -23 -117 -93 -241 -194 -344 -76 -77 -176 -144
-318 -212 -38 -18 -68 -34 -68 -36 0 -4 55 9 130 28 235 62 488 238 622 432
40 57 106 189 113 223 1 9 8 36 15 61 17 64 19 234 3 304 -38 167 -159 330
-335 452 -35 24 -68 47 -74 51 -23 18 -155 86 -244 126 -303 138 -369 180
-454 292 -60 78 -103 186 -113 285 l-5 45 36 -70 c44 -86 101 -153 186 -216
36 -27 70 -52 75 -56 39 -30 215 -117 222 -110 13 13 4 741 -11 872 -2 17 -6
59 -10 95 -3 36 -8 76 -11 90 -12 59 -22 146 -18 153 3 5 12 2 21 -6 16 -13
141 -86 172 -101 41 -19 204 -127 208 -137 2 -5 10 -9 18 -9 8 0 14 -3 14 -8
0 -4 11 -14 24 -22 53 -33 188 -158 260 -240 179 -205 254 -473 202 -720 -25
-114 -130 -343 -184 -399 -7 -7 -10 -16 -7 -19 5 -6 54 34 68 56 5 7 16 20 26
30 34 33 115 137 164 212 41 63 91 179 116 269 73 265 28 546 -127 790 -30 48
-116 165 -147 201 -30 36 -229 233 -441 440 -110 107 -248 265 -262 300 -3 8
-9 17 -14 20 -8 6 -111 207 -117 230 -2 8 -13 44 -24 80 -14 49 -19 98 -21
200 -1 123 2 154 19 243 3 15 32 108 64 205 58 177 95 300 106 357 25 133 26
295 1 410 -3 11 -5 20 -6 20 -1 0 -3 9 -5 19 -7 37 -65 142 -98 177 -50 54
-112 96 -170 114 -29 9 -59 19 -67 22 -32 12 -221 18 -270 8 -31 -6 -90 -14
-158 -22 -29 -3 -55 -10 -58 -15 -3 -4 21 -38 54 -74 78 -86 172 -252 207
-364 8 -25 28 -98 30 -110 2 -8 4 -15 6 -15 1 0 3 -13 4 -30 1 -16 5 -37 8
-45 10 -26 17 -91 22 -215 9 -194 14 -269 19 -291 2 -11 1 -25 -2 -30 -4 -6
-50 -31 -104 -57 -113 -55 -163 -105 -214 -212 -40 -86 -46 -115 -47 -230 0
-87 2 -106 25 -190 6 -22 11 -47 12 -55 4 -25 18 -74 26 -85 4 -5 10 -23 14
-40 8 -31 78 -206 97 -238 18 -32 23 -114 9 -147 -14 -33 -85 -100 -107 -100
-7 0 -13 -4 -13 -10 0 -5 -6 -10 -14 -10 -8 0 -30 -15 -49 -33 -37 -34 -38
-42 -23 -158 4 -35 3 -37 -47 -58 l-50 -22 -29 21 c-45 33 -87 35 -149 9 -30
-13 -56 -25 -59 -28 -17 -19 -170 -88 -215 -97 -11 -2 -51 -7 -89 -10 -38 -3
-73 -7 -78 -10 -5 -3 8 -18 29 -34 21 -15 76 -65 122 -109 106 -104 159 -132
269 -140 49 -4 86 -3 92 3 24 24 8 -13 -22 -53 -30 -39 -33 -48 -34 -119 -1
-70 -5 -103 -18 -169 -10 -48 -46 -113 -84 -151 -99 -99 -211 -91 -627 45 -93
31 -204 72 -245 92 -41 19 -77 36 -80 36 -8 1 -181 89 -235 120 -160 91 -256
164 -370 279 -104 106 -118 122 -165 196 -89 139 -174 328 -194 434 -2 12 -9
44 -16 71 -15 64 -23 176 -13 174 28 -5 61 3 59 14 -7 37 -28 104 -36 119 -6
10 -10 23 -10 29 0 18 -72 159 -82 159 -4 0 -8 5 -8 11 0 16 -63 94 -114 142
-59 56 -151 117 -221 147 -79 34 -101 47 -93 56 4 4 58 8 120 10 111 2 134 5
213 25 44 11 52 14 140 55 105 48 199 116 347 250 35 31 37 36 23 50 -20 21
-19 27 9 44 67 41 180 148 253 240 29 36 58 72 65 80 7 8 39 56 71 105 33 50
101 155 153 235 163 252 313 379 508 430 164 43 -18 46 -284 5 -25 -4 -54 -9
-65 -11 -11 -3 -36 -7 -55 -10 -19 -3 -43 -7 -52 -10 -10 -3 -30 -7 -45 -10
-79 -12 -365 -101 -422 -131 -15 -7 -30 -13 -34 -13 -4 0 -51 -20 -104 -45
-52 -25 -98 -45 -101 -45 -3 0 4 9 16 20 35 33 312 166 335 162 4 -1 7 2 7 6
0 5 24 14 53 21 28 8 57 16 62 20 6 3 13 6 18 7 4 1 8 2 10 4 1 1 9 3 17 5 27
7 54 14 130 35 41 11 84 22 95 24 11 2 36 7 55 10 98 18 151 26 210 32 36 3
67 7 68 9 2 2 -27 18 -65 36 -52 25 -63 34 -46 36 12 3 46 -3 75 -12 142 -44
186 -56 228 -61 24 -3 48 -8 52 -10 32 -20 349 -20 478 0 14 2 48 7 75 11 99
13 121 16 155 25 19 5 55 12 79 15 23 3 46 7 50 10 4 2 30 7 57 11 27 3 52 8
55 10 17 10 231 14 279 6 87 -16 114 -23 125 -31 5 -5 21 -11 35 -14 l25 -6
-25 20 c-69 56 -103 85 -115 97 -8 6 -18 12 -24 12 -6 0 -11 4 -11 8 0 5 -46
36 -102 70 -147 88 -378 191 -466 208 -18 4 -35 11 -38 15 -3 5 -9 7 -12 5 -4
-2 -41 4 -82 14 l-75 19 102 -2 c57 -1 103 -4 103 -7 0 -3 9 -6 20 -7 31 -3
187 -52 246 -78 33 -15 54 -20 54 -13 0 7 -38 69 -85 139 -106 158 -233 291
-400 417 -202 154 -508 273 -764 299 -61 6 -262 8 -321 3 -27 -2 -112 -17
-205 -36 -99 -19 -405 -145 -405 -166 0 -4 -6 -8 -12 -8 -7 0 -36 -17 -64 -39
l-51 -38 15 41 c20 54 21 217 2 266 -2 3 -2 8 -1 12 0 3 -9 33 -20 65 -11 32
-20 60 -21 63 0 3 -4 14 -9 25 -4 11 -19 54 -34 95 -14 41 -32 88 -39 104
l-12 29 -52 -59z m31 -1030 c3 -4 -17 -27 -46 -53 -28 -25 -86 -81 -128 -123
-61 -62 -79 -75 -88 -65 -8 11 10 34 87 108 91 88 149 137 163 138 3 1 8 -2
12 -5z m-625 -667 c6 3 12 0 12 -5 0 -6 10 -8 22 -4 14 3 19 2 14 -6 -5 -8 0
-12 13 -12 12 0 21 4 21 8 0 5 11 14 24 20 l25 11 -21 -35 c-11 -19 -17 -34
-12 -33 23 4 26 -2 8 -16 -10 -8 -14 -15 -9 -15 52 -6 72 -25 52 -49 -10 -12
-8 -14 11 -9 12 4 22 2 22 -3 0 -5 -11 -11 -25 -15 -29 -7 -30 -11 -9 -35 15
-16 14 -17 -6 -12 -20 5 -21 4 -11 -16 13 -23 2 -28 -17 -9 -19 19 -23 3 -7
-28 22 -42 18 -48 -12 -19 -15 14 -32 26 -38 26 -52 7 -55 6 -62 -20 -9 -41
-13 -43 -40 -23 -25 18 -26 18 -51 -5 -32 -30 -36 -25 -17 20 15 36 15 36 -10
31 -13 -2 -36 -9 -50 -14 l-25 -10 17 26 17 26 -35 -6 c-26 -4 -22 -1 16 12
50 19 74 51 38 53 -14 0 -12 3 7 12 24 10 23 11 -20 17 l-45 5 38 8 c40 9 48
22 18 32 -11 3 -24 12 -30 19 -8 10 -4 12 19 8 25 -4 29 -2 24 13 -6 15 -4 16
15 6 34 -19 39 13 5 44 -15 14 -22 25 -16 25 6 0 14 -4 17 -10 10 -16 25 -12
25 7 0 14 4 12 23 -7 l22 -25 4 35 3 35 12 -31 c6 -17 16 -29 24 -27z m-289
-761 c9 -11 7 -27 -12 -73 -13 -32 -29 -80 -36 -108 -7 -27 -15 -57 -19 -65
-3 -8 -6 -19 -6 -25 -1 -5 -5 -23 -9 -40 -4 -16 -9 -43 -12 -60 -2 -16 -8 -55
-14 -85 -6 -30 -13 -71 -16 -90 -13 -81 -17 -96 -25 -76 -7 20 -5 86 4 146 3
19 8 56 11 82 3 26 21 109 41 185 19 76 37 149 40 162 7 32 23 61 33 61 5 0
14 -6 20 -14z m-1025 -200 c10 -1 56 -18 101 -36 11 -5 54 -21 95 -35 133 -49
327 -139 398 -186 24 -16 47 -29 51 -29 4 0 16 -9 26 -20 10 -11 22 -20 26
-20 8 0 17 -7 71 -52 12 -10 17 -18 12 -18 -6 0 -14 4 -19 9 -6 5 -37 23 -70
41 -33 19 -73 41 -90 51 -85 50 -425 212 -532 254 -68 26 -123 49 -123 52 0 2
10 1 21 -2 12 -4 27 -8 33 -9z m1626 -250 c-3 -2 -34 -7 -68 -11 -35 -3 -73
-8 -85 -11 -12 -3 -38 -6 -58 -9 -29 -3 -100 -18 -184 -39 -52 -13 -144 -45
-207 -71 -47 -20 -78 -29 -78 -22 0 7 10 17 23 23 12 5 49 24 82 41 89 46 125
60 170 67 22 3 51 8 64 10 13 3 49 8 80 12 31 3 57 7 59 9 5 5 206 6 202 1z
m2877 -80 c-3 -8 -11 -34 -17 -58 -6 -24 -17 -59 -24 -78 -8 -19 -15 -39 -16
-45 -5 -18 -8 -30 -25 -76 -18 -51 -16 -94 8 -151 9 -21 12 -40 8 -42 -17 -11
-226 22 -236 37 -11 14 -21 69 -18 92 19 160 74 244 188 289 39 16 79 32 90
36 31 13 48 11 42 -4z m-3753 -263 c-27 -32 -51 -60 -54 -63 -3 -3 -25 -30
-50 -60 -25 -30 -53 -64 -63 -75 -9 -11 -33 -40 -53 -65 -20 -25 -45 -56 -57
-70 -12 -14 -48 -60 -79 -102 -32 -43 -60 -78 -63 -78 -8 0 15 41 36 64 11 11
19 23 19 28 0 10 63 102 73 106 4 2 7 10 7 17 0 7 3 15 8 17 4 2 21 23 37 47
17 25 48 65 70 90 52 61 208 211 214 206 2 -3 -18 -30 -45 -62z m151 -6 c2
-25 7 -58 10 -73 3 -16 7 -51 10 -79 9 -77 14 -118 20 -147 3 -16 7 -40 9 -55
6 -48 18 -127 22 -153 3 -14 7 -52 10 -85 2 -33 7 -66 9 -72 2 -7 0 -13 -5
-13 -6 0 -10 5 -10 10 0 15 0 17 -11 52 -9 31 -15 53 -23 103 -2 11 -7 31 -10
45 -6 27 -15 83 -22 145 -3 22 -7 51 -11 65 -8 38 -16 316 -8 308 4 -3 8 -26
10 -51z"/>
<path d="M2487 6001 l-27 -28 23 -25 c30 -32 60 -42 86 -29 25 14 36 48 21 66
-9 11 -68 46 -74 45 -1 0 -13 -13 -29 -29z"/>
<path d="M2478 7411 c-42 -38 -61 -70 -88 -146 -7 -18 -14 -25 -18 -18 -4 7
-19 16 -33 22 -23 8 -28 6 -43 -21 -20 -33 -30 -126 -16 -142 4 -6 10 -38 13
-71 7 -98 48 -165 124 -204 23 -11 49 -21 58 -21 18 0 34 -36 29 -64 -2 -10 0
-15 4 -12 4 4 7 11 7 14 3 36 21 53 77 73 33 13 71 34 85 48 48 52 82 156 62
193 -7 14 -6 32 4 62 13 37 13 48 0 82 -8 21 -15 44 -17 49 -2 6 -8 22 -14 37
-10 25 -14 27 -37 18 -36 -14 -45 -13 -45 5 0 8 -3 15 -8 15 -4 0 -16 15 -26
34 -10 19 -31 47 -46 61 l-28 27 -44 -41z"/>
<path d="M4395 5263 c-140 -25 -203 -43 -280 -79 -87 -41 -121 -82 -40 -48 22
9 47 18 57 20 10 2 28 6 41 9 56 13 138 21 207 19 207 -6 378 -83 495 -223 57
-69 125 -113 178 -117 80 -6 107 47 70 138 -49 121 -192 224 -373 265 -59 14
-307 25 -355 16z"/>
<path d="M4125 4785 c4 -22 10 -42 15 -45 4 -3 11 -20 15 -37 3 -18 17 -41 31
-52 13 -10 24 -28 24 -39 0 -15 9 -22 30 -27 17 -4 30 -12 30 -18 0 -11 71
-80 87 -84 4 -1 35 -14 68 -27 33 -14 73 -26 88 -26 15 0 30 -7 33 -15 4 -11
11 -12 24 -5 10 5 41 8 69 6 28 -1 52 0 53 4 2 3 43 19 91 35 116 38 125 50
39 53 -73 3 -70 3 -157 21 -115 25 -285 101 -394 175 -113 78 -115 79 -135
101 -18 20 -19 20 -11 -20z"/>
<path d="M5178 3748 c-31 -12 -47 -35 -41 -58 7 -26 11 -25 80 6 31 15 62 27
67 28 6 1 20 7 31 14 18 10 17 12 -15 13 -86 5 -100 4 -122 -3z"/>
</g>
</svg>
